<?xml version="1.0" encoding="UTF-8"?>
<svg xmlns="http://www.w3.org/2000/svg" xmlns:xlink="http://www.w3.org/1999/xlink"
     width="742.505898424428" height="343.43584168364265" viewBox="0 0 742.505898424428 343.43584168364265">
<defs>
</defs>
<path d="M200,0 L200,0 L200,1 L201,2 L201,5 L202,6 L202,9 L203,10 L203,12 L204,13 L204,16 L205,17 L205,20 L206,21 L206,23 L207,24 L207,27 L208,28 L208,31 L209,32 L209,34 L210,35 L210,38 L211,39 L211,42 L212,43 L212,45 L213,46 L213,49 L214,50 L214,52 L215,53 L215,56 L216,57 L216,60 L217,61 L217,63 L218,64 L218,67 L219,68 L219,71 L220,72 L220,74 L221,75 L221,78 L222,79 L222,82 L223,83 L223,85 L224,86 L224,89 L225,90 L225,93 L226,94 L226,96 L227,97 L227,100 L228,101 L228,104 L229,105 L229,107 L230,108 L230,111 L231,112 L231,115 L232,116 L232,118 L233,119 L233,122 L234,123 L234,126 L235,127 L235,129 L236,130 L236,133 L237,134 L237,136 L238,137 L238,140 L239,141 L239,144 L240,145 L240,147 L241,148 L241,151 L242,152 L242,155 L243,156 L243,158 L244,159 L244,162 L245,163 L245,166 L246,167 L246,169 L247,170 L247,173 L248,174 L248,177 L249,178 L249,180 L250,181 L250,184 L251,185 L251,188 L252,189 L252,191 L253,192 L253,195 L254,196 L254,199 L255,200 L255,202 L256,203 L256,206 L257,207 L257,210 L258,211 L258,213 L259,214 L259,217 L260,218 L260,220 L261,221 L261,224 L262,225 L262,228 L263,229 L263,231 L264,232 L264,235 L265,236 L265,239 L266,240 L266,242 L267,243 L267,246 L268,247 L268,258 L267,259 L254,259 L253,258 L252,259 L251,259 L252,259 L254,261 L254,262 L259,267 L259,268 L263,272 L263,273 L268,278 L268,279 L270,281 L270,289 L269,290 L264,290 L263,289 L260,289 L259,288 L256,288 L255,287 L252,287 L251,286 L248,286 L247,285 L244,285 L243,284 L240,284 L239,283 L236,283 L235,282 L232,282 L231,281 L228,281 L227,280 L224,280 L223,279 L220,279 L219,278 L218,278 L219,279 L219,283 L218,284 L211,284 L210,283 L205,283 L204,282 L198,282 L197,281 L192,281 L191,280 L186,280 L185,279 L180,279 L179,278 L173,278 L172,277 L167,277 L166,276 L161,276 L160,275 L155,275 L154,274 L148,274 L147,273 L142,273 L141,272 L136,272 L135,271 L129,271 L128,270 L123,270 L122,269 L117,269 L116,268 L111,268 L110,267 L104,267 L103,266 L98,266 L97,265 L92,265 L91,264 L86,264 L85,263 L71,263 L70,262 L63,262 L62,261 L56,261 L55,260 L48,260 L47,259 L40,259 L39,258 L32,258 L31,257 L25,257 L24,256 L17,256 L16,255 L9,255 L8,254 L5,254 L5,257 L6,258 L8,258 L9,259 L14,259 L15,260 L20,260 L21,261 L21,265 L20,266 L15,266 L14,265 L5,265 L4,264 L0,264 L0,265 L2,265 L3,266 L3,267 L4,267 L5,268 L6,268 L7,269 L11,269 L12,270 L20,270 L21,271 L29,271 L30,272 L38,272 L39,273 L46,273 L47,274 L55,274 L56,275 L64,275 L65,276 L73,276 L74,277 L82,277 L83,278 L88,278 L89,279 L89,282 L90,282 L91,283 L101,283 L102,284 L106,284 L107,285 L107,290 L106,291 L97,291 L108,291 L109,292 L130,292 L131,293 L153,293 L154,294 L154,298 L153,299 L152,299 L153,300 L156,300 L157,301 L161,301 L162,302 L165,302 L166,303 L172,303 L173,304 L177,304 L178,305 L188,305 L189,304 L198,304 L200,306 L203,306 L204,307 L212,307 L213,306 L221,306 L222,305 L230,305 L231,304 L239,304 L240,303 L250,303 L251,304 L251,308 L250,309 L249,309 L249,313 L245,317 L245,318 L236,327 L236,328 L232,332 L232,333 L240,333 L241,334 L242,334 L244,332 L245,332 L250,327 L251,327 L256,322 L257,322 L262,317 L263,317 L268,312 L272,312 L273,313 L273,317 L272,318 L272,319 L270,321 L270,322 L269,323 L269,324 L268,325 L268,326 L267,327 L267,328 L265,330 L265,331 L264,332 L264,333 L263,334 L263,335 L261,337 L261,338 L267,338 L268,339 L271,339 L273,341 L273,343 L278,343 L278,340 L279,339 L279,335 L280,334 L280,331 L281,330 L281,326 L282,325 L294,325 L296,327 L296,325 L297,324 L297,322 L298,321 L302,321 L305,324 L305,325 L308,328 L308,329 L311,332 L311,333 L313,335 L314,334 L314,333 L313,332 L313,331 L310,328 L310,327 L307,324 L307,317 L308,316 L313,316 L314,317 L315,317 L316,318 L317,318 L318,319 L319,319 L320,320 L321,320 L322,321 L323,321 L324,322 L325,321 L325,315 L328,312 L329,312 L330,311 L338,311 L339,312 L343,312 L344,313 L347,313 L348,314 L352,314 L353,315 L356,315 L357,316 L361,316 L362,317 L365,317 L366,318 L370,318 L371,319 L375,319 L376,320 L379,320 L380,321 L384,321 L385,322 L388,322 L389,323 L393,323 L394,324 L397,324 L398,325 L402,325 L403,326 L405,326 L406,327 L409,327 L407,327 L406,326 L405,326 L404,325 L401,325 L400,324 L397,324 L396,323 L393,323 L392,322 L389,322 L388,321 L386,321 L385,320 L382,320 L381,319 L378,319 L377,318 L374,318 L373,317 L371,317 L370,316 L367,316 L366,315 L363,315 L362,314 L359,314 L358,313 L355,313 L354,312 L352,312 L351,311 L348,311 L347,310 L344,310 L343,309 L340,309 L339,308 L336,308 L335,307 L333,307 L332,306 L329,306 L328,305 L325,305 L324,304 L321,304 L320,303 L318,303 L317,302 L314,302 L313,301 L313,297 L314,296 L324,296 L325,295 L327,295 L328,294 L334,294 L335,293 L348,293 L349,292 L362,292 L363,291 L376,291 L377,290 L391,290 L392,289 L405,289 L406,288 L419,288 L420,287 L433,287 L434,286 L448,286 L449,285 L462,285 L463,284 L476,284 L477,283 L490,283 L491,282 L505,282 L506,281 L519,281 L520,280 L533,280 L534,279 L547,279 L548,278 L562,278 L563,277 L576,277 L577,276 L590,276 L591,275 L604,275 L605,274 L619,274 L620,273 L633,273 L634,272 L647,272 L648,271 L661,271 L662,270 L676,270 L677,269 L690,269 L691,268 L704,268 L705,267 L718,267 L719,266 L726,266 L726,264 L727,263 L729,263 L723,263 L722,264 L710,264 L709,265 L697,265 L696,266 L684,266 L683,267 L671,267 L670,268 L658,268 L657,269 L645,269 L644,270 L632,270 L631,271 L618,271 L617,272 L605,272 L604,273 L592,273 L591,274 L579,274 L578,275 L566,275 L565,276 L553,276 L552,277 L540,277 L539,278 L527,278 L526,279 L514,279 L513,280 L501,280 L500,281 L488,281 L487,282 L475,282 L474,283 L462,283 L461,284 L450,284 L449,283 L449,279 L450,278 L458,278 L459,277 L467,277 L468,276 L475,276 L476,275 L484,275 L485,274 L493,274 L494,273 L501,273 L502,272 L510,272 L511,271 L519,271 L520,270 L528,270 L529,269 L536,269 L537,268 L545,268 L546,267 L554,267 L555,266 L562,266 L563,265 L571,265 L572,264 L580,264 L581,263 L588,263 L589,262 L597,262 L598,261 L606,261 L607,260 L614,260 L615,259 L623,259 L624,258 L632,258 L633,257 L640,257 L641,256 L649,256 L650,255 L658,255 L659,254 L666,254 L667,253 L675,253 L676,252 L684,252 L685,251 L692,251 L693,250 L701,250 L702,249 L710,249 L711,248 L718,248 L719,247 L727,247 L728,246 L732,246 L728,246 L727,247 L719,247 L718,248 L710,248 L709,249 L702,249 L701,250 L693,250 L692,251 L684,251 L683,252 L675,252 L674,253 L666,253 L665,254 L657,254 L656,255 L648,255 L647,256 L640,256 L639,257 L631,257 L630,258 L622,258 L621,259 L613,259 L612,260 L604,260 L603,261 L595,261 L594,262 L587,262 L586,263 L578,263 L577,264 L569,264 L568,265 L560,265 L559,266 L551,266 L550,267 L542,267 L541,268 L533,268 L532,269 L525,269 L524,270 L516,270 L515,271 L507,271 L506,272 L498,272 L497,273 L489,273 L488,274 L480,274 L479,275 L471,275 L470,276 L463,276 L462,277 L454,277 L453,278 L445,278 L444,279 L436,279 L435,280 L427,280 L426,281 L418,281 L417,282 L410,282 L409,283 L402,283 L401,282 L401,278 L402,277 L407,277 L408,276 L413,276 L414,275 L419,275 L420,274 L425,274 L426,273 L431,273 L432,272 L437,272 L438,271 L443,271 L444,270 L449,270 L450,269 L455,269 L456,268 L462,268 L463,267 L468,267 L469,266 L474,266 L475,265 L480,265 L481,264 L486,264 L487,263 L492,263 L493,262 L498,262 L499,261 L504,261 L505,260 L510,260 L511,259 L516,259 L517,258 L522,258 L523,257 L529,257 L530,256 L535,256 L536,255 L541,255 L542,254 L547,254 L548,253 L553,253 L554,252 L559,252 L560,251 L565,251 L566,250 L571,250 L572,249 L577,249 L578,248 L583,248 L584,247 L589,247 L590,246 L596,246 L597,245 L602,245 L603,244 L608,244 L609,243 L614,243 L615,242 L620,242 L621,241 L626,241 L627,240 L632,240 L633,239 L638,239 L639,238 L644,238 L645,237 L650,237 L651,236 L656,236 L657,235 L663,235 L664,234 L669,234 L670,233 L675,233 L676,232 L681,232 L682,231 L687,231 L688,230 L693,230 L694,229 L699,229 L700,228 L705,228 L706,227 L711,227 L712,226 L717,226 L718,225 L723,225 L724,224 L727,224 L727,220 L728,219 L728,215 L730,213 L732,213 L731,212 L731,208 L729,208 L728,207 L728,199 L729,198 L732,198 L733,197 L735,197 L735,192 L736,191 L739,191 L740,190 L742,190 L740,190 L739,191 L736,191 L735,192 L732,192 L731,193 L727,193 L726,194 L723,194 L722,195 L719,195 L718,196 L715,196 L714,197 L710,197 L709,198 L706,198 L705,199 L702,199 L701,200 L697,200 L696,201 L693,201 L692,202 L689,202 L688,203 L685,203 L684,204 L680,204 L679,205 L676,205 L675,206 L672,206 L671,207 L667,207 L666,208 L663,208 L662,209 L659,209 L658,210 L655,210 L654,211 L650,211 L649,212 L646,212 L645,213 L642,213 L641,214 L637,214 L636,215 L633,215 L632,216 L629,216 L628,217 L625,217 L624,218 L620,218 L619,219 L616,219 L615,220 L612,220 L611,221 L607,221 L606,222 L603,222 L602,223 L599,223 L598,224 L595,224 L594,225 L590,225 L589,226 L586,226 L585,227 L582,227 L581,228 L577,228 L576,229 L573,229 L572,230 L569,230 L568,231 L565,231 L564,232 L560,232 L559,233 L556,233 L555,234 L552,234 L551,235 L547,235 L546,236 L543,236 L542,237 L539,237 L538,238 L535,238 L534,239 L530,239 L529,240 L526,240 L525,241 L522,241 L521,242 L517,242 L516,243 L513,243 L512,244 L509,244 L508,245 L504,245 L503,246 L500,246 L499,247 L496,247 L495,248 L492,248 L491,249 L487,249 L486,250 L483,250 L482,251 L479,251 L478,252 L474,252 L473,253 L470,253 L469,254 L466,254 L465,255 L462,255 L461,256 L457,256 L456,257 L453,257 L452,258 L449,258 L448,259 L444,259 L443,260 L440,260 L439,261 L436,261 L435,262 L432,262 L431,263 L427,263 L426,264 L423,264 L422,265 L419,265 L418,266 L414,266 L413,267 L410,267 L409,268 L406,268 L405,269 L402,269 L401,270 L397,270 L396,271 L393,271 L392,272 L389,272 L388,273 L384,273 L383,274 L380,274 L379,275 L376,275 L375,276 L372,276 L371,277 L367,277 L366,278 L363,278 L362,279 L359,279 L358,280 L354,280 L353,281 L350,281 L349,282 L346,282 L345,283 L342,283 L341,284 L337,284 L336,285 L332,285 L331,284 L331,278 L325,278 L324,277 L324,276 L323,275 L322,275 L318,271 L317,271 L316,270 L316,265 L317,264 L316,263 L316,258 L317,257 L317,255 L319,253 L319,252 L322,249 L322,248 L324,246 L324,245 L326,243 L326,242 L329,239 L329,238 L331,236 L331,235 L333,233 L333,232 L336,229 L336,228 L338,226 L338,225 L340,223 L340,222 L343,219 L343,218 L345,216 L345,215 L346,214 L345,214 L342,217 L340,217 L338,219 L334,219 L333,218 L330,218 L329,217 L329,213 L330,212 L330,211 L331,210 L331,209 L332,208 L332,207 L333,206 L333,205 L334,204 L334,203 L335,202 L335,201 L336,200 L336,199 L337,198 L337,197 L338,196 L338,195 L339,194 L339,193 L340,192 L340,191 L341,190 L341,189 L342,188 L342,187 L343,186 L343,185 L344,184 L344,183 L345,182 L340,182 L340,183 L339,184 L339,185 L338,186 L338,187 L337,188 L337,189 L336,190 L336,191 L335,192 L335,193 L334,194 L334,195 L333,196 L333,197 L332,198 L332,199 L331,200 L331,201 L330,202 L330,203 L329,204 L329,205 L328,206 L328,207 L327,208 L327,209 L326,210 L326,211 L325,212 L325,213 L324,214 L324,215 L323,216 L323,217 L322,218 L322,219 L321,220 L321,222 L320,223 L320,224 L319,225 L319,226 L318,227 L318,228 L317,229 L317,230 L316,231 L316,232 L315,233 L315,234 L314,235 L314,236 L313,237 L313,238 L312,239 L312,240 L311,241 L311,242 L310,243 L310,244 L309,245 L309,246 L308,247 L308,248 L307,249 L307,250 L306,251 L306,252 L305,253 L305,254 L304,255 L304,256 L301,259 L298,259 L298,260 L297,261 L297,262 L295,264 L295,265 L294,266 L294,267 L293,268 L289,268 L288,267 L288,262 L287,262 L286,261 L284,261 L283,260 L282,260 L281,259 L280,259 L276,255 L276,252 L275,251 L275,248 L274,247 L274,244 L273,243 L273,240 L272,239 L272,236 L271,235 L271,232 L270,231 L270,228 L269,227 L269,224 L268,223 L268,220 L267,219 L267,216 L266,215 L266,212 L265,211 L265,208 L264,207 L264,204 L263,203 L263,200 L262,199 L262,196 L261,195 L261,192 L260,191 L260,188 L259,187 L259,184 L258,183 L258,180 L257,179 L257,176 L256,175 L256,172 L255,171 L255,169 L254,168 L254,165 L253,164 L253,161 L252,160 L252,157 L251,156 L251,153 L250,152 L250,149 L249,148 L249,145 L248,144 L248,141 L247,140 L247,137 L246,136 L246,133 L245,132 L245,129 L244,128 L244,125 L243,124 L243,121 L242,120 L242,117 L241,116 L241,113 L240,112 L240,109 L239,108 L239,105 L238,104 L238,101 L237,100 L237,97 L236,96 L236,93 L235,92 L235,89 L234,88 L234,86 L233,85 L233,82 L232,81 L232,78 L231,77 L231,74 L230,73 L230,70 L229,69 L229,66 L228,65 L228,62 L227,61 L227,58 L226,57 L226,54 L225,53 L225,50 L224,49 L224,46 L223,45 L223,42 L222,41 L222,38 L221,37 L221,34 L220,33 L220,30 L219,29 L219,26 L218,25 L218,22 L217,21 L217,18 L216,17 L216,14 L215,13 L215,10 L214,9 L214,6 L213,5 L213,0" stroke-width="2" stroke="lime" fill="black" fill-opacity="0" />
</svg>