<?xml version="1.0" encoding="UTF-8"?>
<svg xmlns="http://www.w3.org/2000/svg" xmlns:xlink="http://www.w3.org/1999/xlink"
     width="762.5569581016273" height="401.18971193710394" viewBox="0 0 762.5569581016273 401.18971193710394">
<defs>
</defs>
<path d="M175,10 L175,10 L174,11 L174,14 L173,15 L173,26 L172,27 L172,30 L171,31 L170,31 L170,33 L169,34 L165,34 L164,33 L163,33 L162,32 L161,32 L160,33 L155,33 L153,31 L142,31 L141,30 L138,30 L136,28 L135,29 L129,29 L128,28 L125,28 L124,27 L114,27 L113,26 L107,26 L106,25 L97,25 L96,24 L91,24 L90,23 L85,23 L83,21 L82,21 L80,19 L79,20 L71,20 L70,19 L65,19 L64,18 L53,18 L52,17 L46,17 L44,15 L44,22 L43,23 L43,25 L42,26 L42,30 L41,31 L42,32 L42,36 L41,37 L41,40 L40,41 L40,42 L39,43 L38,43 L39,44 L39,49 L38,50 L38,62 L36,64 L37,65 L37,73 L36,74 L36,76 L35,77 L35,78 L34,79 L32,79 L36,83 L36,91 L35,92 L35,93 L34,94 L35,95 L35,99 L34,100 L34,106 L33,107 L33,109 L34,110 L34,111 L35,112 L35,117 L34,118 L34,123 L33,124 L33,130 L32,131 L32,135 L31,136 L31,138 L30,139 L30,140 L29,141 L29,145 L28,146 L29,147 L29,156 L28,157 L28,159 L27,160 L27,162 L26,163 L26,173 L25,174 L26,175 L26,183 L25,184 L25,186 L24,187 L23,187 L24,188 L24,193 L23,194 L23,195 L22,196 L21,196 L21,198 L20,199 L20,202 L19,203 L20,204 L20,214 L19,215 L19,221 L18,222 L17,222 L17,232 L16,233 L16,240 L15,241 L15,245 L14,246 L14,251 L13,252 L13,256 L12,257 L12,264 L11,265 L11,279 L10,280 L10,283 L11,284 L11,288 L10,289 L16,289 L17,290 L17,291 L19,293 L21,293 L22,294 L22,295 L39,295 L41,297 L41,303 L40,304 L38,304 L38,308 L37,309 L32,309 L33,309 L35,311 L41,311 L42,310 L54,310 L55,309 L67,309 L68,308 L80,308 L81,307 L92,307 L93,306 L105,306 L106,305 L132,305 L133,306 L133,310 L132,311 L125,311 L124,312 L117,312 L116,313 L109,313 L108,314 L101,314 L100,315 L93,315 L92,316 L85,316 L84,317 L77,317 L76,318 L69,318 L68,319 L61,319 L60,320 L53,320 L52,321 L45,321 L44,322 L37,322 L36,323 L29,323 L28,324 L24,324 L23,325 L24,325 L25,326 L30,326 L31,325 L38,325 L39,324 L46,324 L47,323 L54,323 L55,322 L63,322 L64,321 L71,321 L72,320 L79,320 L80,319 L88,319 L89,318 L96,318 L97,317 L104,317 L105,316 L112,316 L113,315 L121,315 L122,314 L129,314 L130,313 L137,313 L138,312 L149,312 L150,313 L154,313 L155,314 L160,314 L161,315 L170,315 L171,316 L178,316 L179,317 L182,317 L183,318 L193,318 L194,317 L198,317 L199,316 L202,316 L203,315 L209,315 L210,316 L212,316 L213,317 L216,317 L217,318 L225,318 L226,319 L232,319 L233,320 L238,320 L239,321 L246,321 L248,323 L248,329 L247,330 L247,333 L246,334 L246,336 L245,337 L245,339 L244,340 L244,341 L249,341 L250,342 L250,344 L252,344 L253,343 L254,343 L255,342 L256,342 L257,341 L258,341 L259,340 L261,340 L262,339 L263,339 L264,338 L265,338 L266,337 L267,337 L268,336 L270,336 L271,335 L272,335 L273,334 L274,334 L275,333 L276,333 L277,332 L278,332 L279,331 L281,331 L282,330 L283,330 L284,329 L285,329 L286,328 L287,328 L288,327 L296,327 L297,328 L304,328 L305,329 L308,329 L309,330 L311,330 L314,333 L314,336 L315,337 L315,340 L316,341 L316,344 L317,345 L317,348 L318,349 L318,352 L319,353 L319,356 L320,357 L320,360 L321,361 L321,362 L322,362 L322,360 L321,359 L321,356 L320,355 L320,351 L321,350 L323,350 L324,349 L324,345 L323,344 L323,342 L322,341 L322,339 L321,338 L321,333 L322,332 L327,332 L329,334 L329,335 L330,336 L331,335 L336,335 L339,338 L342,338 L343,339 L348,339 L349,340 L358,340 L359,341 L370,341 L371,342 L373,342 L374,343 L383,343 L383,341 L385,339 L390,339 L391,340 L396,340 L397,341 L404,341 L405,342 L408,342 L409,343 L415,343 L416,344 L421,344 L422,345 L428,345 L429,346 L431,346 L432,347 L433,347 L434,348 L436,348 L437,349 L438,349 L439,350 L440,350 L441,351 L443,351 L444,352 L445,352 L446,353 L448,353 L449,354 L450,354 L451,355 L452,355 L453,356 L455,356 L456,357 L457,357 L458,358 L460,358 L461,359 L462,359 L463,360 L464,360 L465,361 L467,361 L468,362 L469,362 L470,363 L471,363 L472,364 L474,364 L475,365 L476,365 L477,366 L479,366 L480,367 L481,367 L482,368 L483,368 L484,369 L486,369 L487,370 L488,370 L489,371 L491,371 L492,372 L493,372 L494,373 L495,373 L496,374 L498,374 L498,373 L499,372 L500,372 L500,371 L499,370 L499,368 L498,368 L497,367 L496,367 L495,366 L493,366 L492,365 L491,365 L490,364 L488,364 L487,363 L486,363 L485,362 L483,362 L482,361 L481,361 L480,360 L478,360 L477,359 L476,359 L475,358 L475,354 L476,353 L483,353 L484,354 L486,354 L487,355 L488,355 L487,355 L486,354 L486,348 L487,347 L491,347 L492,348 L495,348 L496,349 L498,349 L499,350 L501,350 L502,351 L505,351 L506,352 L508,352 L509,353 L512,353 L513,354 L515,354 L516,355 L518,355 L519,356 L522,356 L523,357 L525,357 L526,358 L528,358 L529,359 L532,359 L533,360 L535,360 L536,361 L539,361 L540,362 L542,362 L543,363 L545,363 L546,364 L549,364 L550,365 L552,365 L553,366 L555,366 L556,367 L559,367 L560,368 L561,368 L562,367 L563,367 L564,366 L578,366 L579,367 L585,367 L586,368 L589,368 L590,369 L593,369 L594,370 L597,370 L598,371 L600,371 L601,372 L604,372 L605,373 L608,373 L609,374 L612,374 L613,375 L615,375 L616,376 L619,376 L620,377 L623,377 L624,378 L626,378 L627,379 L630,379 L631,380 L634,380 L635,381 L638,381 L639,382 L641,382 L642,383 L645,383 L646,384 L649,384 L650,385 L653,385 L654,386 L656,386 L657,387 L660,387 L661,388 L664,388 L665,389 L668,389 L669,390 L672,390 L673,391 L674,391 L674,389 L675,388 L676,388 L677,387 L678,387 L678,386 L679,385 L680,385 L679,385 L678,384 L677,384 L676,383 L676,382 L675,382 L674,381 L671,381 L670,380 L667,380 L666,379 L666,374 L667,373 L671,373 L672,374 L677,374 L678,375 L683,375 L684,376 L687,376 L688,377 L692,377 L693,378 L697,378 L698,379 L701,379 L702,380 L704,380 L702,380 L701,379 L701,376 L699,376 L698,375 L695,375 L694,374 L690,374 L689,373 L686,373 L685,372 L683,372 L682,371 L682,370 L680,370 L679,369 L675,369 L674,368 L670,368 L669,367 L665,367 L663,365 L663,364 L661,364 L660,363 L656,363 L655,362 L650,362 L649,361 L645,361 L644,360 L643,360 L642,359 L642,355 L644,353 L644,349 L643,348 L643,340 L644,339 L644,334 L645,333 L646,333 L646,329 L647,328 L647,324 L648,323 L648,319 L649,318 L649,313 L650,312 L651,312 L652,311 L655,311 L656,310 L656,309 L658,307 L667,307 L668,308 L689,308 L690,309 L711,309 L712,310 L722,310 L722,298 L724,296 L724,288 L725,287 L724,286 L724,280 L725,279 L726,279 L725,279 L724,278 L724,274 L725,273 L727,273 L727,270 L728,269 L727,269 L726,268 L726,261 L727,260 L728,260 L728,259 L729,258 L728,258 L727,257 L727,252 L728,251 L728,250 L729,249 L730,249 L730,245 L731,244 L731,241 L732,240 L731,240 L730,239 L730,232 L731,231 L733,231 L733,229 L732,228 L732,218 L733,217 L733,216 L734,215 L737,215 L738,214 L739,214 L738,213 L738,209 L737,209 L736,208 L735,208 L734,207 L734,202 L736,200 L737,200 L737,195 L738,194 L737,193 L737,188 L739,186 L740,186 L738,186 L737,185 L737,180 L739,178 L739,172 L740,171 L740,170 L741,169 L742,169 L743,168 L740,168 L739,167 L739,163 L740,162 L740,159 L741,158 L741,152 L742,151 L742,146 L743,145 L743,139 L744,138 L745,138 L746,137 L746,134 L748,132 L750,132 L751,131 L752,131 L748,131 L746,129 L746,128 L744,126 L744,125 L742,123 L742,122 L741,121 L741,120 L739,118 L739,117 L738,116 L738,115 L736,113 L736,112 L734,110 L734,109 L733,108 L733,107 L732,106 L730,106 L729,107 L725,107 L724,108 L722,108 L721,109 L720,109 L719,110 L717,110 L716,111 L711,111 L710,110 L710,105 L711,104 L712,104 L713,103 L714,103 L715,102 L716,102 L717,101 L718,101 L719,100 L720,100 L719,100 L718,101 L717,101 L716,102 L715,102 L714,103 L712,103 L711,104 L710,104 L709,105 L708,105 L707,106 L705,106 L704,107 L703,107 L702,108 L701,108 L700,109 L699,109 L698,110 L697,110 L696,111 L695,111 L694,112 L693,112 L692,113 L690,113 L689,114 L688,114 L687,115 L686,115 L685,116 L684,116 L683,117 L682,117 L681,118 L679,118 L678,119 L677,119 L676,120 L675,120 L674,121 L673,121 L672,122 L671,122 L670,123 L668,123 L667,124 L666,124 L665,125 L664,125 L663,126 L662,126 L661,127 L659,127 L658,128 L657,128 L656,129 L655,129 L654,130 L653,130 L652,131 L651,131 L650,132 L648,132 L647,133 L646,133 L645,134 L644,134 L643,135 L642,135 L641,136 L639,136 L638,137 L637,137 L636,138 L635,138 L634,139 L633,139 L632,140 L631,140 L630,141 L628,141 L627,142 L626,142 L625,143 L624,143 L623,144 L622,144 L621,145 L619,145 L618,146 L617,146 L616,147 L615,147 L614,148 L613,148 L612,149 L611,149 L610,150 L608,150 L607,151 L601,151 L600,150 L599,150 L598,149 L596,149 L595,148 L590,148 L589,149 L588,149 L587,150 L586,150 L585,151 L584,151 L583,152 L582,152 L581,153 L580,153 L579,154 L578,154 L577,155 L576,155 L575,156 L573,156 L572,157 L571,157 L570,158 L569,158 L568,159 L567,159 L566,160 L565,160 L564,161 L563,161 L562,162 L561,162 L560,163 L558,163 L557,164 L556,164 L555,165 L554,165 L553,166 L552,166 L551,167 L550,167 L549,168 L548,168 L547,169 L546,169 L545,170 L544,170 L543,171 L541,171 L540,172 L539,172 L538,173 L537,173 L536,174 L535,174 L534,175 L533,175 L532,176 L531,176 L530,177 L529,177 L528,178 L527,178 L526,179 L524,179 L523,180 L522,180 L521,181 L520,181 L519,182 L518,182 L517,183 L516,183 L515,184 L514,184 L513,185 L509,185 L508,184 L508,180 L509,179 L510,179 L511,178 L512,178 L513,177 L514,177 L516,175 L517,175 L518,174 L519,174 L521,172 L522,172 L523,171 L524,171 L526,169 L527,169 L528,168 L529,168 L530,167 L531,167 L533,165 L534,165 L535,164 L536,164 L538,162 L539,162 L540,161 L541,161 L542,160 L543,160 L545,158 L546,158 L547,157 L548,157 L550,155 L551,155 L552,154 L553,154 L555,152 L556,152 L557,151 L558,151 L559,150 L560,150 L562,148 L563,148 L564,147 L565,147 L567,145 L568,145 L569,144 L570,144 L572,142 L573,142 L574,141 L575,141 L576,140 L577,140 L579,138 L580,138 L581,137 L582,137 L584,135 L585,135 L586,134 L587,134 L588,133 L589,133 L591,131 L592,131 L593,130 L594,130 L599,125 L600,125 L607,118 L608,118 L616,110 L617,110 L625,102 L626,102 L633,95 L634,95 L638,91 L637,90 L637,86 L636,85 L636,82 L635,83 L628,83 L627,82 L619,82 L618,83 L617,83 L616,84 L607,84 L606,83 L605,83 L604,82 L604,78 L602,78 L601,79 L597,79 L596,80 L593,80 L592,81 L588,81 L586,79 L586,78 L585,78 L584,77 L583,78 L579,78 L578,79 L577,79 L576,80 L575,80 L573,82 L572,82 L569,85 L568,85 L567,86 L561,86 L560,87 L556,87 L555,86 L553,86 L552,85 L550,85 L549,84 L544,84 L543,83 L541,83 L540,82 L536,82 L535,81 L528,81 L527,80 L526,81 L520,81 L519,80 L513,80 L512,79 L502,79 L501,78 L495,78 L494,77 L489,77 L488,76 L485,76 L484,75 L484,74 L478,74 L477,73 L467,73 L466,72 L457,72 L456,71 L456,70 L454,70 L453,69 L442,69 L441,68 L440,68 L439,67 L424,67 L423,66 L420,66 L419,65 L415,65 L414,64 L414,63 L413,64 L401,64 L400,63 L399,63 L398,62 L388,62 L387,61 L382,61 L381,60 L367,60 L366,59 L364,59 L363,58 L355,58 L354,57 L350,57 L349,56 L339,56 L338,55 L334,55 L333,54 L326,54 L325,53 L317,53 L316,52 L313,52 L312,51 L311,52 L306,52 L305,51 L302,51 L301,50 L288,50 L287,49 L282,49 L281,48 L278,48 L277,47 L270,47 L269,46 L269,45 L260,45 L259,44 L259,43 L257,43 L256,44 L247,44 L246,43 L242,43 L240,41 L240,39 L237,39 L236,38 L236,36 L235,35 L235,33 L234,32 L234,29 L233,28 L233,26 L232,25 L232,22 L231,21 L231,19 L230,18 L230,15 L229,14 L229,13 L225,13 L224,12 L224,11 L221,14 L211,14 L210,13 L199,13 L198,12 L187,12 L186,11 L176,11" stroke-width="2" stroke="lime" fill="black" fill-opacity="0" />
</svg>