<?xml version="1.0" encoding="UTF-8"?>
<svg xmlns="http://www.w3.org/2000/svg" xmlns:xlink="http://www.w3.org/1999/xlink"
     width="720.3968600947932" height="408.47279933602186" viewBox="0 0 720.3968600947932 408.47279933602186">
<defs>
</defs>
<path d="M465,10 L465,10 L461,14 L460,14 L452,22 L451,22 L444,29 L443,29 L435,37 L434,37 L433,38 L430,38 L429,39 L428,39 L427,40 L426,40 L425,41 L424,41 L423,42 L422,42 L421,43 L420,43 L419,44 L418,44 L410,52 L410,53 L404,59 L401,59 L400,60 L392,60 L391,61 L390,61 L388,63 L387,63 L385,65 L384,65 L382,67 L381,67 L379,69 L378,69 L376,71 L375,71 L373,73 L372,73 L370,75 L369,75 L368,76 L367,76 L365,78 L364,78 L362,80 L361,80 L359,82 L358,82 L356,84 L355,84 L353,86 L352,86 L350,88 L349,88 L347,90 L346,90 L344,92 L343,92 L341,94 L340,94 L338,96 L337,96 L335,98 L334,98 L332,100 L331,100 L329,102 L328,102 L326,104 L325,104 L323,106 L322,106 L321,107 L320,107 L318,109 L317,109 L315,111 L314,111 L312,113 L311,113 L309,115 L308,115 L306,117 L305,117 L303,119 L302,119 L300,121 L299,121 L297,123 L296,123 L294,125 L293,125 L291,127 L290,127 L288,129 L287,129 L285,131 L284,131 L282,133 L281,133 L279,135 L278,135 L276,137 L275,137 L273,139 L272,139 L271,140 L270,140 L268,142 L267,142 L265,144 L264,144 L262,146 L261,146 L259,148 L258,148 L256,150 L255,150 L253,152 L252,152 L250,154 L249,154 L247,156 L246,156 L244,158 L243,158 L241,160 L240,160 L238,162 L237,162 L235,164 L234,164 L232,166 L231,166 L229,168 L228,168 L226,170 L225,170 L224,171 L223,171 L221,173 L220,173 L218,175 L217,175 L215,177 L214,177 L212,179 L211,179 L209,181 L208,181 L206,183 L205,183 L203,185 L202,185 L200,187 L199,187 L197,189 L196,189 L194,191 L193,191 L191,193 L190,193 L188,195 L187,195 L185,197 L184,197 L182,199 L181,199 L179,201 L178,201 L177,202 L176,202 L174,204 L173,204 L171,206 L170,206 L168,208 L167,208 L165,210 L164,210 L162,212 L161,212 L159,214 L158,214 L156,216 L155,216 L153,218 L152,218 L150,220 L149,220 L147,222 L146,222 L144,224 L143,224 L141,226 L140,226 L138,228 L137,228 L135,230 L134,230 L132,232 L131,232 L130,233 L129,233 L127,235 L126,235 L124,237 L123,237 L121,239 L120,239 L118,241 L117,241 L115,243 L114,243 L112,245 L111,245 L109,247 L108,247 L106,249 L105,249 L103,251 L102,251 L100,253 L99,253 L97,255 L96,255 L94,257 L93,257 L91,259 L90,259 L88,261 L87,261 L85,263 L84,263 L82,265 L81,265 L80,266 L79,266 L77,268 L76,268 L74,270 L73,270 L71,272 L70,272 L68,274 L67,274 L65,276 L64,276 L62,278 L61,278 L59,280 L58,280 L56,282 L55,282 L53,284 L52,284 L50,286 L49,286 L47,288 L46,288 L44,290 L43,290 L41,292 L40,292 L38,294 L37,294 L35,296 L34,296 L33,297 L32,297 L30,299 L29,299 L27,301 L26,301 L24,303 L23,303 L21,305 L20,305 L18,307 L17,307 L15,309 L14,309 L12,311 L11,311 L10,312 L10,319 L11,320 L11,327 L12,328 L12,329 L13,330 L13,337 L15,339 L15,343 L16,344 L16,345 L17,346 L17,356 L18,357 L18,360 L20,362 L20,364 L21,365 L21,366 L22,367 L22,369 L23,370 L23,371 L24,372 L25,372 L26,371 L35,371 L36,370 L38,370 L39,369 L41,369 L42,368 L51,368 L52,369 L53,369 L54,370 L54,373 L56,373 L57,372 L58,372 L59,371 L61,371 L62,370 L63,370 L64,369 L65,369 L66,368 L68,368 L69,367 L70,367 L71,366 L73,366 L74,365 L75,365 L76,364 L78,364 L79,363 L80,363 L81,362 L82,362 L83,361 L85,361 L86,360 L87,360 L88,359 L90,359 L91,358 L92,358 L93,357 L94,357 L95,356 L99,356 L100,357 L100,361 L99,362 L98,362 L97,363 L96,363 L95,364 L93,364 L92,365 L91,365 L90,366 L89,366 L88,367 L87,367 L86,368 L85,368 L84,369 L83,369 L82,370 L81,370 L80,371 L78,371 L77,372 L76,372 L75,373 L74,373 L73,374 L72,374 L71,375 L70,375 L69,376 L68,376 L67,377 L65,377 L64,378 L63,378 L62,379 L61,379 L60,380 L59,380 L58,381 L57,381 L56,382 L55,382 L54,383 L53,383 L52,384 L51,384 L52,384 L53,383 L54,383 L55,382 L56,382 L57,381 L58,381 L59,380 L60,380 L61,379 L62,379 L63,378 L65,378 L66,377 L67,377 L68,376 L69,376 L70,375 L71,375 L72,374 L73,374 L74,373 L75,373 L76,372 L78,372 L79,371 L80,371 L81,370 L82,370 L83,369 L84,369 L85,368 L86,368 L87,367 L89,367 L90,366 L91,366 L92,365 L93,365 L94,364 L95,364 L96,363 L97,363 L98,362 L99,362 L100,361 L102,361 L103,360 L104,360 L105,359 L106,359 L107,358 L108,358 L109,357 L110,357 L111,356 L112,356 L113,355 L115,355 L116,354 L117,354 L118,353 L119,353 L120,352 L121,352 L122,351 L123,351 L124,350 L125,350 L126,349 L128,349 L129,348 L130,348 L131,347 L139,347 L140,348 L140,352 L139,353 L138,353 L137,354 L136,354 L135,355 L134,355 L133,356 L132,356 L131,357 L130,357 L129,358 L128,358 L127,359 L126,359 L125,360 L124,360 L123,361 L122,361 L121,362 L120,362 L119,363 L118,363 L117,364 L116,364 L115,365 L114,365 L113,366 L112,366 L111,367 L110,367 L109,368 L108,368 L107,369 L106,369 L105,370 L104,370 L103,371 L102,371 L101,372 L100,372 L99,373 L98,373 L97,374 L96,374 L95,375 L94,375 L93,376 L92,376 L91,377 L90,377 L89,378 L88,378 L87,379 L86,379 L85,380 L84,380 L83,381 L82,381 L81,382 L80,382 L79,383 L78,383 L77,384 L76,384 L75,385 L74,385 L73,386 L72,386 L71,387 L70,387 L69,388 L68,388 L67,389 L66,389 L65,390 L64,390 L63,391 L62,391 L61,392 L60,392 L59,393 L58,393 L57,394 L56,394 L55,395 L54,395 L53,396 L52,396 L51,397 L52,398 L53,398 L54,397 L55,397 L56,396 L57,396 L58,395 L59,395 L60,394 L61,394 L62,393 L63,393 L64,392 L65,392 L66,391 L67,391 L68,390 L69,390 L70,389 L71,389 L72,388 L73,388 L74,387 L75,387 L76,386 L77,386 L78,385 L79,385 L80,384 L81,384 L83,382 L84,382 L85,381 L86,381 L87,380 L88,380 L89,379 L90,379 L91,378 L92,378 L93,377 L94,377 L95,376 L96,376 L97,375 L98,375 L99,374 L100,374 L101,373 L102,373 L103,372 L104,372 L105,371 L106,371 L107,370 L108,370 L110,368 L111,368 L112,367 L113,367 L114,366 L115,366 L116,365 L117,365 L118,364 L119,364 L120,363 L121,363 L122,362 L123,362 L124,361 L125,361 L126,360 L127,360 L128,359 L129,359 L130,358 L131,358 L132,357 L133,357 L134,356 L135,356 L136,355 L137,355 L139,353 L140,353 L141,352 L142,352 L143,351 L144,351 L145,350 L146,350 L147,349 L148,349 L149,348 L150,348 L151,347 L152,347 L153,346 L154,346 L155,345 L156,345 L157,344 L163,344 L164,345 L164,346 L165,346 L166,345 L167,345 L168,344 L171,344 L172,343 L176,343 L177,342 L181,342 L182,341 L186,341 L187,340 L190,340 L191,339 L192,339 L193,338 L199,338 L200,337 L202,337 L203,336 L205,336 L206,335 L207,335 L208,334 L209,334 L211,332 L212,332 L213,331 L214,331 L216,329 L217,329 L218,328 L224,328 L225,327 L229,327 L230,326 L233,326 L234,325 L238,325 L239,324 L242,324 L243,323 L247,323 L248,322 L251,322 L252,321 L261,321 L262,322 L262,329 L263,330 L263,339 L269,339 L270,340 L285,325 L286,325 L300,311 L301,311 L302,310 L303,310 L304,309 L307,309 L308,308 L312,308 L313,307 L317,307 L318,306 L324,306 L325,307 L330,307 L331,308 L331,309 L332,310 L332,311 L333,312 L333,313 L335,315 L335,316 L336,317 L336,318 L337,319 L337,320 L338,321 L338,322 L339,323 L341,323 L342,322 L342,321 L341,320 L341,319 L339,317 L339,316 L337,314 L337,313 L335,311 L335,310 L334,309 L334,308 L333,307 L333,303 L334,302 L338,302 L339,303 L341,303 L341,302 L342,301 L347,301 L348,302 L349,302 L350,303 L351,303 L352,304 L355,304 L356,303 L360,303 L361,302 L364,302 L365,301 L369,301 L370,300 L373,300 L374,299 L378,299 L379,298 L380,298 L381,297 L386,297 L387,296 L391,296 L392,295 L394,295 L396,293 L405,293 L406,294 L409,294 L410,295 L413,295 L414,296 L417,296 L418,297 L421,297 L422,298 L425,298 L426,299 L429,299 L430,300 L433,300 L434,301 L437,301 L438,302 L441,302 L442,303 L443,303 L443,302 L442,302 L441,301 L438,301 L437,300 L435,300 L434,299 L431,299 L430,298 L428,298 L427,297 L424,297 L423,296 L421,296 L420,295 L417,295 L416,294 L413,294 L412,293 L410,293 L409,292 L409,288 L410,287 L412,287 L413,286 L415,286 L416,285 L418,285 L419,284 L427,284 L428,285 L435,285 L436,286 L443,286 L444,287 L451,287 L452,288 L458,288 L459,289 L466,289 L467,290 L474,290 L475,291 L478,291 L477,291 L476,290 L476,289 L473,289 L472,288 L465,288 L464,287 L457,287 L456,286 L450,286 L449,285 L447,285 L446,284 L446,280 L447,279 L454,279 L455,280 L468,280 L469,281 L481,281 L482,282 L494,282 L495,283 L508,283 L509,284 L518,284 L518,283 L519,282 L516,282 L515,281 L515,280 L508,280 L507,279 L494,279 L493,278 L480,278 L479,277 L474,277 L473,276 L473,270 L474,269 L488,269 L489,268 L497,268 L497,267 L499,265 L501,265 L501,260 L503,258 L512,258 L513,257 L533,257 L534,256 L553,256 L554,255 L574,255 L575,254 L585,254 L585,252 L586,251 L591,251 L592,250 L593,250 L584,250 L583,249 L581,249 L580,248 L580,241 L582,239 L582,237 L583,236 L583,234 L582,234 L581,233 L574,233 L573,234 L561,234 L560,235 L548,235 L547,236 L535,236 L534,237 L522,237 L521,238 L510,238 L509,239 L497,239 L496,240 L484,240 L483,241 L471,241 L470,242 L458,242 L457,243 L445,243 L444,244 L438,244 L437,243 L436,243 L435,242 L435,235 L436,234 L436,233 L437,232 L438,232 L439,231 L442,231 L443,230 L446,230 L447,229 L449,229 L450,228 L453,228 L454,227 L457,227 L458,226 L460,226 L461,225 L464,225 L465,224 L468,224 L469,223 L470,223 L472,221 L474,221 L475,220 L478,220 L479,219 L482,219 L483,218 L485,218 L486,217 L489,217 L490,216 L491,216 L490,216 L489,217 L486,217 L485,218 L483,218 L482,219 L479,219 L478,220 L475,220 L474,221 L470,221 L469,220 L469,216 L470,215 L472,215 L473,214 L474,214 L473,214 L472,215 L463,215 L461,213 L461,207 L462,206 L463,206 L464,205 L466,205 L467,204 L468,204 L469,203 L471,203 L472,202 L473,202 L474,201 L476,201 L477,200 L478,200 L479,199 L481,199 L482,198 L484,198 L485,197 L486,197 L487,196 L489,196 L490,195 L491,195 L492,194 L494,194 L495,193 L496,193 L497,192 L499,192 L500,191 L501,191 L502,190 L504,190 L505,189 L506,189 L507,188 L509,188 L510,187 L511,187 L512,186 L514,186 L515,185 L516,185 L517,184 L519,184 L520,183 L522,183 L523,182 L524,182 L525,181 L527,181 L528,180 L529,180 L530,179 L532,179 L533,178 L534,178 L535,177 L537,177 L538,176 L539,176 L540,175 L542,175 L543,174 L544,174 L545,173 L547,173 L548,172 L549,172 L550,171 L552,171 L553,170 L554,170 L555,169 L557,169 L558,168 L560,168 L561,167 L562,167 L563,166 L565,166 L566,165 L567,165 L568,164 L570,164 L571,163 L572,163 L573,162 L575,162 L576,161 L577,161 L578,160 L580,160 L581,159 L582,159 L583,158 L585,158 L586,157 L587,157 L588,156 L590,156 L591,155 L592,155 L593,154 L595,154 L596,153 L597,153 L598,152 L600,152 L601,151 L603,151 L604,150 L605,150 L606,149 L608,149 L609,148 L610,148 L611,147 L613,147 L614,146 L615,146 L616,145 L618,145 L619,144 L620,144 L621,143 L623,143 L624,142 L625,142 L626,141 L628,141 L629,140 L630,140 L631,139 L633,139 L634,138 L635,138 L636,137 L638,137 L639,136 L641,136 L642,135 L643,135 L644,134 L646,134 L647,133 L648,133 L649,132 L651,132 L652,131 L653,131 L654,130 L656,130 L657,129 L658,129 L659,128 L661,128 L662,127 L663,127 L664,126 L666,126 L667,125 L668,125 L669,124 L671,124 L672,123 L673,123 L674,122 L676,122 L677,121 L679,121 L680,120 L681,120 L682,119 L684,119 L685,118 L686,118 L687,117 L689,117 L690,116 L691,116 L692,115 L694,115 L695,114 L696,114 L697,113 L698,113 L697,113 L696,112 L696,108 L697,107 L698,107 L701,104 L702,104 L703,103 L704,103 L705,102 L706,102 L707,101 L708,101 L710,99 L708,99 L707,98 L707,94 L704,94 L703,93 L703,89 L704,88 L703,88 L702,87 L702,84 L701,83 L701,75 L702,74 L702,73 L703,72 L703,68 L702,68 L701,69 L700,69 L699,70 L698,70 L697,71 L696,71 L695,72 L694,72 L693,73 L692,73 L691,74 L690,74 L689,75 L688,75 L687,76 L686,76 L685,77 L684,77 L683,78 L682,78 L681,79 L680,79 L679,80 L678,80 L677,81 L676,81 L675,82 L674,82 L673,83 L672,83 L671,84 L670,84 L669,85 L668,85 L667,86 L666,86 L665,87 L664,87 L663,88 L662,88 L661,89 L660,89 L659,90 L658,90 L657,91 L656,91 L655,92 L654,92 L653,93 L652,93 L651,94 L650,94 L649,95 L648,95 L647,96 L646,96 L645,97 L644,97 L643,98 L642,98 L641,99 L640,99 L639,100 L638,100 L637,101 L636,101 L635,102 L634,102 L633,103 L632,103 L631,104 L630,104 L629,105 L628,105 L627,106 L625,106 L624,107 L623,107 L622,108 L621,108 L620,109 L619,109 L618,110 L617,110 L616,111 L615,111 L614,112 L613,112 L612,113 L611,113 L610,114 L609,114 L608,115 L607,115 L606,116 L605,116 L604,117 L603,117 L602,118 L601,118 L600,119 L599,119 L598,120 L597,120 L596,121 L595,121 L594,122 L593,122 L592,123 L591,123 L590,124 L589,124 L588,125 L587,125 L586,126 L585,126 L584,127 L583,127 L582,128 L581,128 L580,129 L579,129 L578,130 L577,130 L576,131 L575,131 L574,132 L573,132 L572,133 L571,133 L570,134 L569,134 L568,135 L567,135 L566,136 L565,136 L564,137 L563,137 L562,138 L561,138 L560,139 L559,139 L558,140 L557,140 L556,141 L555,141 L554,142 L553,142 L552,143 L551,143 L550,144 L548,144 L547,145 L546,145 L545,146 L544,146 L543,147 L542,147 L541,148 L540,148 L539,149 L538,149 L537,150 L536,150 L535,151 L534,151 L533,152 L532,152 L531,153 L530,153 L529,154 L528,154 L527,155 L526,155 L525,156 L524,156 L523,157 L522,157 L521,158 L520,158 L519,159 L518,159 L517,160 L516,160 L515,161 L514,161 L513,162 L512,162 L511,163 L510,163 L509,164 L508,164 L507,165 L506,165 L505,166 L504,166 L503,167 L502,167 L501,168 L500,168 L499,169 L498,169 L497,170 L496,170 L495,171 L494,171 L493,172 L492,172 L491,173 L490,173 L489,174 L488,174 L487,175 L486,175 L485,176 L484,176 L483,177 L482,177 L481,178 L480,178 L479,179 L478,179 L477,180 L476,180 L475,181 L471,181 L470,180 L470,179 L469,178 L469,167 L468,166 L468,164 L464,160 L464,156 L463,155 L463,154 L461,154 L460,153 L460,152 L459,151 L459,145 L458,145 L457,144 L457,143 L456,142 L456,137 L457,136 L457,135 L458,134 L458,129 L462,125 L460,125 L459,124 L459,121 L458,121 L457,120 L454,120 L452,118 L452,111 L454,109 L454,105 L458,101 L458,96 L464,90 L464,89 L473,80 L473,79 L481,71 L481,70 L490,61 L490,60 L499,51 L499,50 L503,46 L503,45 L504,44 L504,40 L505,39 L501,43 L498,43 L497,44 L496,44 L491,49 L491,50 L485,56 L485,57 L479,63 L479,64 L473,70 L473,71 L467,77 L467,78 L460,85 L460,86 L454,92 L454,93 L448,99 L448,100 L442,106 L442,107 L436,113 L436,114 L431,119 L427,119 L426,118 L426,112 L425,112 L424,111 L424,110 L422,108 L422,107 L421,106 L421,98 L422,97 L422,96 L423,95 L423,94 L424,93 L424,92 L425,91 L425,90 L426,89 L426,88 L427,87 L427,86 L428,85 L428,84 L429,83 L429,82 L430,81 L430,80 L431,79 L431,78 L432,77 L432,76 L433,75 L433,74 L434,73 L434,72 L435,71 L435,70 L436,69 L436,68 L437,67 L437,66 L438,65 L438,64 L439,63 L439,62 L440,61 L440,60 L441,59 L441,58 L442,57 L442,56 L443,55 L443,54 L444,53 L444,52 L445,51 L445,50 L446,49 L446,48 L447,47 L447,46 L448,45 L448,44 L449,43 L449,42 L450,41 L450,40 L451,39 L451,38 L452,37 L452,36 L453,35 L453,34 L454,33 L454,32 L455,31 L455,30 L456,29 L456,28 L457,27 L457,26 L458,25 L458,24 L459,23 L459,22 L460,21 L460,20 L461,19 L461,18 L462,17 L462,16 L463,15 L463,14 L464,13 L464,12 L465,11" stroke-width="2" stroke="lime" fill="black" fill-opacity="0" />
</svg>