<?xml version="1.0" encoding="UTF-8"?>
<svg xmlns="http://www.w3.org/2000/svg" xmlns:xlink="http://www.w3.org/1999/xlink"
     width="715.6905830348694" height="424.40884515487164" viewBox="0 0 715.6905830348694 424.40884515487164">
<defs>
</defs>
<path d="M458,10 L458,10 L456,12 L454,12 L453,13 L449,13 L448,14 L448,15 L447,16 L447,17 L446,18 L446,19 L445,20 L445,21 L444,22 L444,23 L442,25 L442,26 L441,27 L441,28 L440,29 L440,30 L439,31 L439,32 L438,33 L438,34 L436,36 L436,37 L435,38 L435,39 L434,40 L434,41 L433,42 L433,43 L432,44 L432,45 L430,47 L430,48 L429,49 L429,50 L428,51 L428,52 L427,53 L427,54 L426,55 L426,56 L424,58 L424,59 L423,60 L423,61 L422,62 L422,63 L421,64 L421,65 L420,66 L420,67 L418,69 L418,70 L417,71 L417,72 L416,73 L416,74 L415,75 L415,76 L413,78 L413,79 L412,80 L412,81 L411,82 L411,83 L410,84 L410,85 L409,86 L409,87 L407,89 L407,90 L406,91 L406,92 L405,93 L405,94 L404,95 L404,96 L403,97 L403,98 L402,99 L398,99 L397,98 L397,93 L398,92 L398,90 L399,89 L399,88 L400,87 L400,85 L401,84 L401,82 L402,81 L402,79 L403,78 L403,76 L404,75 L404,74 L403,74 L402,73 L402,71 L399,71 L398,70 L397,71 L394,71 L394,72 L393,73 L391,73 L390,74 L385,74 L384,73 L383,73 L382,72 L381,72 L380,71 L379,71 L378,70 L377,70 L374,67 L374,66 L373,65 L373,64 L372,65 L370,65 L369,66 L367,66 L366,67 L365,67 L364,68 L360,68 L359,67 L359,60 L360,59 L360,55 L361,54 L361,51 L362,50 L362,46 L363,45 L363,42 L364,41 L364,39 L364,40 L363,41 L363,44 L362,45 L362,47 L361,48 L361,51 L360,52 L360,54 L359,55 L359,57 L358,58 L358,61 L357,62 L357,64 L356,65 L356,68 L355,69 L355,71 L354,72 L352,72 L350,74 L350,75 L349,76 L342,76 L341,75 L341,74 L339,74 L338,75 L334,75 L333,74 L332,74 L328,78 L327,78 L320,85 L319,85 L312,92 L311,92 L304,99 L303,99 L296,106 L295,106 L288,113 L287,113 L280,120 L279,120 L272,127 L271,127 L264,134 L263,134 L256,141 L255,141 L248,148 L247,148 L240,155 L239,155 L232,162 L231,162 L224,169 L223,169 L216,176 L215,176 L208,183 L207,183 L200,190 L199,190 L192,197 L191,197 L184,204 L183,204 L176,211 L175,211 L167,219 L166,219 L159,226 L158,226 L151,233 L150,233 L143,240 L142,240 L135,247 L134,247 L127,254 L126,254 L119,261 L118,261 L111,268 L110,268 L103,275 L102,275 L95,282 L94,282 L87,289 L86,289 L79,296 L78,296 L71,303 L70,303 L63,310 L62,310 L55,317 L54,317 L47,324 L46,324 L39,331 L38,331 L31,338 L30,338 L23,345 L22,345 L15,352 L14,352 L10,356 L10,357 L11,358 L11,361 L12,362 L12,363 L13,364 L13,365 L14,366 L14,372 L15,373 L15,374 L16,375 L16,379 L17,380 L17,381 L18,381 L19,382 L19,384 L20,384 L21,385 L21,387 L22,387 L23,386 L34,386 L35,387 L35,388 L36,388 L37,387 L39,387 L40,386 L45,386 L46,387 L46,395 L45,396 L44,396 L47,396 L48,395 L49,395 L50,394 L51,394 L52,393 L54,393 L55,392 L56,392 L57,391 L59,391 L60,390 L61,390 L62,389 L63,389 L64,388 L66,388 L67,387 L68,387 L69,386 L70,386 L71,385 L73,385 L74,384 L75,384 L76,383 L78,383 L79,382 L80,382 L81,381 L82,381 L83,380 L85,380 L86,379 L87,379 L88,378 L90,378 L91,377 L92,377 L93,376 L94,376 L95,375 L97,375 L98,374 L99,374 L100,373 L101,373 L102,372 L104,372 L105,371 L106,371 L107,370 L111,370 L112,371 L112,375 L111,376 L110,376 L109,377 L108,377 L107,378 L106,378 L105,379 L103,379 L102,380 L101,380 L100,381 L99,381 L98,382 L97,382 L96,383 L95,383 L94,384 L93,384 L92,385 L91,385 L90,386 L89,386 L88,387 L86,387 L85,388 L84,388 L83,389 L82,389 L81,390 L80,390 L79,391 L78,391 L77,392 L76,392 L75,393 L74,393 L73,394 L71,394 L70,395 L69,395 L68,396 L67,396 L66,397 L65,397 L64,398 L63,398 L62,399 L61,399 L60,400 L59,400 L58,401 L57,401 L56,402 L55,402 L56,402 L57,403 L57,407 L56,408 L55,408 L54,409 L53,409 L52,410 L51,410 L50,411 L49,411 L48,412 L47,412 L46,413 L46,414 L47,414 L48,413 L49,413 L50,412 L51,412 L52,411 L53,411 L54,410 L55,410 L56,409 L57,409 L58,408 L59,408 L60,407 L61,407 L62,406 L63,406 L64,405 L65,405 L66,404 L67,404 L68,403 L69,403 L70,402 L71,402 L72,401 L73,401 L74,400 L75,400 L76,399 L77,399 L78,398 L79,398 L80,397 L81,397 L82,396 L83,396 L84,395 L85,395 L86,394 L87,394 L88,393 L89,393 L90,392 L91,392 L92,391 L93,391 L94,390 L95,390 L96,389 L97,389 L98,388 L99,388 L100,387 L101,387 L102,386 L103,386 L104,385 L105,385 L106,384 L107,384 L108,383 L109,383 L110,382 L111,382 L112,381 L113,381 L114,380 L115,380 L116,379 L117,379 L118,378 L119,378 L120,377 L121,377 L122,376 L123,376 L124,375 L125,375 L126,374 L127,374 L128,373 L129,373 L130,372 L131,372 L132,371 L133,371 L134,370 L135,370 L136,369 L137,369 L138,368 L139,368 L140,367 L141,367 L142,366 L143,366 L144,365 L145,365 L146,364 L147,364 L148,363 L149,363 L150,362 L151,362 L152,361 L153,361 L154,360 L155,360 L156,359 L160,359 L161,360 L161,361 L162,361 L163,360 L171,360 L172,359 L173,359 L174,358 L175,358 L176,357 L182,357 L183,356 L186,356 L187,355 L190,355 L191,354 L194,354 L195,353 L198,353 L199,352 L202,352 L203,351 L204,351 L206,349 L207,349 L209,347 L210,347 L211,346 L212,346 L214,344 L216,344 L217,343 L225,343 L226,342 L229,342 L230,341 L233,341 L234,340 L239,340 L240,339 L245,339 L246,338 L250,338 L251,337 L257,337 L258,338 L258,349 L257,350 L257,355 L266,355 L295,326 L300,326 L301,325 L303,325 L304,324 L308,324 L309,323 L312,323 L313,322 L324,322 L326,324 L326,325 L328,327 L328,328 L330,330 L330,331 L332,333 L332,334 L334,336 L334,337 L336,339 L337,339 L338,338 L338,334 L336,332 L336,331 L333,328 L333,327 L329,323 L329,319 L330,318 L334,318 L335,319 L336,319 L338,321 L339,321 L339,319 L340,318 L344,318 L345,319 L346,319 L347,320 L350,320 L351,319 L355,319 L356,318 L360,318 L361,317 L365,317 L366,316 L369,316 L370,315 L374,315 L375,314 L378,314 L379,313 L383,313 L384,312 L388,312 L389,311 L390,311 L391,310 L399,310 L400,311 L403,311 L404,312 L407,312 L408,313 L411,313 L412,314 L414,314 L415,315 L418,315 L419,316 L422,316 L423,317 L426,317 L427,318 L430,318 L431,319 L434,319 L435,320 L436,320 L437,319 L438,319 L439,318 L439,317 L438,316 L436,316 L435,315 L432,315 L431,314 L427,314 L426,313 L422,313 L421,312 L418,312 L417,311 L413,311 L412,310 L409,310 L408,309 L407,309 L406,308 L406,304 L407,303 L411,303 L412,302 L415,302 L416,301 L423,301 L424,300 L427,300 L428,299 L438,299 L439,298 L441,298 L441,297 L442,296 L449,296 L450,297 L466,297 L467,298 L484,298 L485,299 L501,299 L502,300 L512,300 L511,299 L511,296 L504,296 L503,295 L490,295 L489,294 L476,294 L475,293 L470,293 L469,292 L469,288 L470,287 L476,287 L476,286 L477,285 L488,285 L488,284 L489,283 L490,283 L490,281 L491,280 L520,280 L521,279 L545,279 L545,274 L546,273 L562,273 L563,272 L581,272 L582,271 L591,271 L591,269 L592,268 L594,268 L595,267 L601,267 L602,266 L604,266 L605,265 L613,265 L605,265 L604,266 L587,266 L586,267 L579,267 L578,266 L578,265 L576,263 L576,258 L578,256 L578,255 L579,254 L580,254 L581,253 L582,253 L582,251 L583,250 L585,250 L586,249 L593,249 L594,248 L600,248 L601,247 L607,247 L608,246 L615,246 L616,245 L622,245 L623,244 L629,244 L630,243 L637,243 L638,242 L641,242 L641,239 L642,238 L642,237 L643,236 L644,236 L643,236 L642,235 L642,227 L640,227 L639,226 L639,224 L638,224 L637,223 L637,222 L636,221 L636,220 L634,218 L634,217 L632,217 L631,218 L627,218 L626,219 L622,219 L621,220 L618,220 L617,221 L613,221 L612,222 L608,222 L607,223 L603,223 L602,224 L598,224 L597,225 L593,225 L592,226 L588,226 L587,227 L584,227 L583,228 L579,228 L578,229 L574,229 L573,230 L569,230 L568,231 L564,231 L563,232 L559,232 L558,233 L554,233 L553,234 L550,234 L549,235 L545,235 L544,236 L540,236 L539,237 L535,237 L534,238 L530,238 L529,239 L525,239 L524,240 L520,240 L519,241 L516,241 L515,242 L511,242 L510,243 L506,243 L505,244 L501,244 L500,245 L496,245 L495,246 L491,246 L490,247 L486,247 L485,248 L482,248 L481,249 L477,249 L476,250 L472,250 L471,251 L467,251 L466,252 L462,252 L461,253 L457,253 L456,254 L452,254 L451,255 L448,255 L447,256 L443,256 L442,257 L438,257 L437,258 L431,258 L430,257 L430,256 L429,255 L429,250 L430,249 L431,249 L431,248 L432,247 L434,247 L435,246 L438,246 L439,245 L441,245 L442,244 L444,244 L445,243 L448,243 L449,242 L451,242 L452,241 L454,241 L455,240 L457,240 L458,239 L461,239 L462,238 L464,238 L465,237 L466,237 L467,236 L469,236 L470,235 L472,235 L473,234 L475,234 L476,233 L478,233 L479,232 L481,232 L482,231 L484,231 L485,230 L487,230 L488,229 L490,229 L491,228 L493,228 L494,227 L495,227 L491,227 L490,228 L487,228 L486,229 L484,229 L483,230 L481,230 L480,231 L477,231 L476,232 L474,232 L473,233 L471,233 L470,234 L464,234 L463,233 L463,232 L462,231 L461,231 L460,230 L459,230 L458,229 L458,225 L460,223 L460,221 L461,220 L462,220 L463,219 L464,219 L465,218 L467,218 L468,217 L469,217 L470,216 L472,216 L473,215 L474,215 L475,214 L476,214 L477,213 L479,213 L480,212 L481,212 L482,211 L484,211 L485,210 L486,210 L487,209 L489,209 L490,208 L491,208 L492,207 L494,207 L495,206 L496,206 L497,205 L498,205 L499,204 L501,204 L502,203 L503,203 L504,202 L506,202 L507,201 L508,201 L509,200 L511,200 L512,199 L513,199 L514,198 L516,198 L517,197 L518,197 L519,196 L520,196 L521,195 L523,195 L524,194 L525,194 L526,193 L528,193 L529,192 L530,192 L531,191 L533,191 L534,190 L535,190 L536,189 L538,189 L539,188 L540,188 L541,187 L543,187 L544,186 L545,186 L546,185 L547,185 L548,184 L550,184 L551,183 L552,183 L553,182 L555,182 L556,181 L557,181 L558,180 L560,180 L561,179 L562,179 L563,178 L565,178 L566,177 L567,177 L568,176 L569,176 L570,175 L572,175 L573,174 L574,174 L575,173 L577,173 L578,172 L579,172 L580,171 L582,171 L583,170 L584,170 L585,169 L587,169 L588,168 L589,168 L590,167 L591,167 L592,166 L594,166 L595,165 L596,165 L597,164 L599,164 L600,163 L601,163 L602,162 L604,162 L605,161 L606,161 L607,160 L609,160 L610,159 L611,159 L612,158 L613,158 L614,157 L616,157 L617,156 L618,156 L619,155 L621,155 L622,154 L623,154 L624,153 L626,153 L627,152 L628,152 L629,151 L631,151 L632,150 L633,150 L634,149 L636,149 L637,148 L638,148 L639,147 L640,147 L641,146 L643,146 L644,145 L645,145 L646,144 L648,144 L649,143 L650,143 L651,142 L653,142 L654,141 L655,141 L656,140 L658,140 L659,139 L660,139 L661,138 L662,138 L663,137 L665,137 L666,136 L667,136 L668,135 L670,135 L671,134 L672,134 L673,133 L675,133 L676,132 L677,132 L678,131 L680,131 L681,130 L682,130 L683,129 L684,129 L685,128 L687,128 L688,127 L689,127 L690,126 L692,126 L693,125 L694,125 L695,124 L696,124 L696,120 L697,119 L697,116 L700,113 L700,109 L702,107 L702,102 L703,101 L703,90 L705,88 L699,88 L698,87 L698,79 L699,78 L698,79 L697,79 L696,80 L695,80 L694,81 L693,81 L692,82 L691,82 L690,83 L689,83 L688,84 L687,84 L686,85 L685,85 L684,86 L683,86 L682,87 L681,87 L680,88 L679,88 L678,89 L677,89 L676,90 L675,90 L674,91 L673,91 L672,92 L671,92 L670,93 L669,93 L668,94 L667,94 L666,95 L665,95 L664,96 L663,96 L662,97 L661,97 L659,99 L658,99 L657,100 L656,100 L655,101 L654,101 L653,102 L652,102 L651,103 L650,103 L649,104 L648,104 L647,105 L646,105 L645,106 L644,106 L643,107 L642,107 L641,108 L640,108 L639,109 L638,109 L637,110 L636,110 L635,111 L634,111 L633,112 L632,112 L631,113 L630,113 L629,114 L628,114 L627,115 L626,115 L625,116 L624,116 L623,117 L622,117 L620,119 L619,119 L618,120 L617,120 L616,121 L615,121 L614,122 L613,122 L612,123 L611,123 L610,124 L609,124 L608,125 L607,125 L606,126 L605,126 L604,127 L603,127 L602,128 L601,128 L600,129 L599,129 L598,130 L597,130 L596,131 L595,131 L594,132 L593,132 L592,133 L591,133 L590,134 L589,134 L588,135 L587,135 L586,136 L585,136 L584,137 L583,137 L581,139 L580,139 L579,140 L578,140 L577,141 L576,141 L575,142 L574,142 L573,143 L572,143 L571,144 L570,144 L569,145 L568,145 L567,146 L566,146 L565,147 L564,147 L563,148 L562,148 L561,149 L560,149 L559,150 L558,150 L557,151 L556,151 L555,152 L554,152 L553,153 L552,153 L551,154 L550,154 L549,155 L548,155 L547,156 L546,156 L545,157 L544,157 L542,159 L541,159 L540,160 L539,160 L538,161 L537,161 L536,162 L535,162 L534,163 L533,163 L532,164 L531,164 L530,165 L529,165 L528,166 L527,166 L526,167 L525,167 L524,168 L523,168 L522,169 L521,169 L520,170 L519,170 L518,171 L517,171 L516,172 L515,172 L514,173 L513,173 L512,174 L511,174 L510,175 L509,175 L508,176 L507,176 L506,177 L505,177 L503,179 L502,179 L501,180 L500,180 L499,181 L498,181 L497,182 L496,182 L495,183 L494,183 L493,184 L492,184 L491,185 L490,185 L489,186 L488,186 L487,187 L484,187 L483,188 L482,188 L481,189 L480,189 L479,190 L478,190 L476,192 L475,192 L474,193 L473,193 L472,194 L471,194 L470,195 L469,195 L468,196 L464,196 L463,195 L463,180 L462,179 L462,172 L463,171 L463,170 L465,168 L464,169 L460,169 L458,167 L458,166 L457,165 L457,164 L456,163 L456,160 L455,159 L455,150 L456,149 L455,148 L455,146 L453,146 L452,145 L452,141 L453,140 L453,139 L454,138 L453,139 L449,139 L448,138 L448,137 L445,137 L444,136 L444,134 L443,135 L439,135 L438,136 L437,136 L436,137 L435,137 L434,138 L429,138 L425,134 L424,134 L423,133 L423,132 L422,131 L422,130 L421,129 L421,128 L420,127 L420,126 L419,125 L419,124 L418,123 L418,122 L417,121 L417,120 L416,119 L416,114 L417,113 L417,112 L418,111 L418,110 L419,109 L419,108 L420,107 L420,106 L422,104 L422,103 L423,102 L423,101 L424,100 L424,99 L425,98 L425,97 L427,95 L427,94 L428,93 L428,92 L429,91 L429,90 L430,89 L430,88 L431,87 L431,86 L433,84 L433,83 L434,82 L434,81 L435,80 L435,79 L436,78 L436,77 L437,76 L437,75 L439,73 L439,72 L440,71 L440,70 L441,69 L441,68 L442,67 L442,66 L443,65 L443,64 L445,62 L445,61 L446,60 L446,59 L447,58 L447,57 L448,56 L448,55 L450,53 L450,52 L451,51 L451,50 L452,49 L452,48 L453,47 L453,46 L454,45 L454,44 L456,42 L456,41 L457,40 L457,39 L458,38 L458,37 L459,36 L459,35 L460,34 L460,33 L462,31 L462,30 L463,29 L463,28 L464,27 L464,26 L465,25 L465,24 L467,22 L467,21 L468,20 L468,19 L469,18 L469,17 L470,16 L470,15 L471,14 L471,13 L472,12 L470,12 L469,11 L469,10" stroke-width="2" stroke="lime" fill="black" fill-opacity="0" />
</svg>