<?xml version="1.0" encoding="UTF-8"?>
<svg xmlns="http://www.w3.org/2000/svg" xmlns:xlink="http://www.w3.org/1999/xlink"
     width="763.9862009178426" height="599.2618558948557" viewBox="0 0 763.9862009178426 599.2618558948557">
<defs>
</defs>
<path d="M615,10 L615,10 L611,14 L607,14 L606,13 L605,14 L601,14 L600,13 L599,14 L599,15 L596,18 L596,19 L594,21 L594,22 L591,25 L588,25 L586,27 L582,27 L581,26 L581,25 L580,26 L580,27 L578,29 L578,30 L577,31 L573,31 L572,32 L572,33 L571,34 L566,34 L565,35 L565,36 L564,37 L559,37 L558,38 L558,39 L557,40 L557,41 L555,43 L555,44 L553,46 L544,46 L543,47 L543,48 L542,49 L542,50 L540,52 L540,53 L539,54 L535,54 L534,55 L534,56 L532,58 L528,58 L527,57 L527,56 L526,55 L526,54 L525,55 L520,55 L519,54 L517,54 L516,53 L512,53 L511,54 L511,55 L509,57 L505,57 L505,58 L504,59 L504,60 L503,61 L503,62 L502,63 L499,63 L498,64 L498,65 L497,66 L493,66 L491,68 L488,68 L488,69 L486,71 L482,71 L482,72 L481,73 L481,74 L480,75 L477,75 L477,76 L476,77 L476,78 L475,79 L475,81 L473,83 L470,83 L470,84 L469,85 L469,86 L468,87 L468,89 L467,90 L467,92 L466,93 L466,94 L465,95 L465,97 L464,98 L463,98 L462,99 L461,99 L461,100 L460,101 L460,102 L459,103 L456,103 L454,105 L448,105 L448,106 L446,108 L444,108 L443,109 L440,109 L440,110 L438,112 L436,112 L435,113 L435,114 L433,116 L431,116 L430,117 L427,117 L427,118 L425,120 L423,120 L422,121 L420,121 L420,122 L419,123 L416,123 L416,124 L414,126 L412,126 L411,127 L409,127 L409,128 L408,129 L405,129 L405,130 L403,132 L399,132 L399,133 L398,134 L395,134 L394,135 L392,135 L392,137 L391,138 L389,138 L389,139 L388,140 L387,140 L386,141 L384,141 L382,143 L380,143 L380,144 L379,145 L378,145 L377,146 L373,146 L373,147 L372,148 L370,148 L370,149 L369,150 L367,150 L367,151 L366,152 L362,152 L362,153 L360,155 L356,155 L356,157 L355,158 L354,158 L352,160 L350,160 L350,161 L349,162 L348,162 L346,164 L342,164 L342,165 L341,166 L339,166 L338,167 L337,167 L335,169 L332,169 L331,170 L330,170 L329,171 L328,171 L327,172 L326,172 L326,173 L324,175 L322,175 L322,176 L321,177 L319,177 L319,178 L318,179 L317,179 L316,180 L314,180 L313,181 L312,181 L310,183 L310,184 L309,185 L305,185 L305,186 L304,187 L303,187 L302,188 L301,188 L299,190 L298,190 L297,191 L296,191 L295,192 L294,192 L293,193 L291,193 L290,194 L289,194 L287,196 L286,196 L285,197 L284,197 L281,200 L278,200 L278,201 L277,202 L276,202 L275,203 L273,203 L273,205 L272,206 L271,206 L270,207 L269,207 L268,208 L267,208 L266,209 L265,209 L265,210 L264,211 L262,211 L261,212 L260,212 L258,214 L255,214 L253,216 L251,216 L251,217 L249,219 L247,219 L247,220 L246,221 L244,221 L243,222 L240,222 L240,223 L239,224 L235,224 L235,226 L234,227 L233,227 L232,228 L229,228 L228,229 L227,229 L226,230 L222,230 L221,231 L221,232 L219,234 L217,234 L215,236 L214,236 L213,237 L212,237 L211,238 L210,238 L209,239 L207,239 L207,240 L206,241 L204,241 L203,242 L203,243 L202,244 L199,244 L198,245 L197,245 L195,247 L193,247 L193,249 L192,250 L189,250 L189,251 L188,252 L186,252 L185,253 L185,254 L184,255 L180,255 L179,254 L178,254 L173,249 L172,249 L167,244 L166,244 L161,239 L160,239 L158,237 L158,238 L157,239 L151,239 L151,243 L150,244 L144,244 L143,245 L135,245 L135,246 L133,248 L132,248 L131,249 L130,249 L129,250 L128,250 L127,251 L126,251 L125,252 L124,252 L123,253 L123,254 L122,255 L121,255 L121,257 L120,258 L118,258 L116,260 L116,261 L113,264 L112,264 L111,265 L111,266 L110,267 L107,267 L108,268 L108,269 L109,270 L109,273 L110,274 L111,274 L112,275 L113,275 L115,277 L115,279 L117,281 L117,288 L116,289 L115,289 L115,291 L113,293 L110,293 L110,294 L109,295 L108,295 L107,296 L105,296 L104,297 L103,297 L103,298 L102,299 L98,299 L98,300 L97,301 L96,301 L95,302 L92,302 L92,304 L91,305 L88,305 L88,306 L87,307 L85,307 L85,308 L84,309 L83,309 L82,310 L82,311 L81,312 L78,312 L78,313 L77,314 L74,314 L74,315 L73,316 L70,316 L70,317 L69,318 L66,318 L66,319 L65,320 L61,320 L61,321 L60,322 L56,322 L56,324 L55,325 L54,325 L54,326 L53,327 L51,327 L50,328 L48,328 L48,329 L47,330 L44,330 L44,331 L43,332 L38,332 L38,334 L37,335 L33,335 L33,336 L32,337 L26,337 L26,339 L25,340 L22,340 L22,342 L21,343 L19,343 L19,345 L18,346 L11,346 L12,347 L12,353 L11,354 L10,354 L11,354 L12,355 L12,359 L15,359 L17,361 L17,365 L19,365 L20,366 L20,370 L19,371 L17,371 L18,371 L19,372 L19,373 L20,374 L20,377 L23,377 L24,378 L25,378 L26,379 L26,380 L28,382 L28,384 L30,386 L30,387 L32,387 L34,389 L34,393 L35,393 L36,394 L36,397 L37,397 L38,398 L38,400 L39,401 L39,404 L40,404 L41,405 L41,407 L43,407 L44,408 L44,410 L45,411 L45,414 L46,414 L47,415 L47,416 L48,417 L48,418 L49,419 L49,421 L50,421 L51,422 L51,424 L52,425 L52,428 L53,428 L54,429 L55,429 L56,430 L56,431 L57,432 L57,435 L60,435 L61,436 L61,437 L62,438 L63,438 L64,439 L64,443 L65,443 L66,444 L66,447 L68,449 L68,450 L69,451 L69,452 L70,452 L71,453 L71,456 L73,458 L73,461 L74,461 L76,463 L76,467 L77,468 L77,469 L78,470 L79,470 L80,471 L80,474 L82,474 L83,475 L83,478 L84,478 L85,479 L85,482 L87,484 L87,487 L89,487 L90,488 L90,490 L91,491 L91,492 L92,492 L93,493 L93,495 L95,497 L95,501 L96,501 L97,502 L97,506 L98,507 L98,510 L99,510 L101,512 L101,513 L102,514 L102,516 L103,516 L104,517 L104,518 L107,521 L107,522 L108,523 L108,525 L110,527 L110,528 L111,528 L112,529 L112,533 L113,534 L113,536 L114,536 L115,537 L115,538 L117,540 L117,542 L118,543 L118,545 L119,545 L120,546 L120,547 L121,547 L122,548 L122,550 L123,551 L123,553 L124,554 L124,556 L126,556 L127,557 L127,558 L128,559 L128,561 L129,562 L130,562 L131,563 L131,565 L132,566 L132,567 L133,568 L133,571 L134,571 L135,572 L135,574 L136,575 L136,577 L137,577 L138,578 L138,579 L139,580 L139,582 L140,583 L140,584 L141,584 L142,585 L142,586 L143,586 L145,588 L147,588 L148,589 L150,587 L155,587 L158,584 L162,584 L165,581 L166,581 L171,576 L172,576 L173,575 L178,575 L179,576 L182,573 L183,573 L189,567 L190,567 L196,561 L197,561 L202,556 L205,556 L206,555 L209,555 L210,554 L212,554 L216,550 L217,550 L221,546 L225,546 L226,545 L228,545 L233,540 L235,540 L238,537 L240,537 L241,536 L242,536 L245,533 L246,533 L247,532 L249,532 L252,529 L255,529 L259,525 L260,525 L261,524 L262,524 L263,523 L269,523 L270,524 L272,524 L274,522 L275,522 L276,521 L277,521 L278,520 L279,520 L280,519 L281,519 L285,515 L288,515 L290,513 L291,513 L292,512 L293,512 L294,511 L295,511 L296,510 L297,510 L300,507 L301,507 L302,506 L303,506 L304,505 L305,505 L307,503 L308,503 L310,501 L311,501 L312,500 L312,499 L313,498 L313,497 L315,495 L315,494 L316,493 L317,493 L319,491 L320,491 L321,490 L322,490 L325,487 L327,487 L328,486 L330,486 L332,484 L334,484 L336,482 L338,482 L340,480 L341,480 L342,479 L343,479 L344,478 L345,478 L346,477 L347,477 L349,475 L350,475 L352,473 L356,473 L357,474 L357,476 L358,477 L358,480 L359,481 L359,484 L360,485 L360,488 L361,489 L361,490 L362,491 L365,488 L367,488 L370,485 L371,485 L372,484 L373,484 L375,482 L376,482 L377,481 L378,481 L379,480 L380,480 L382,478 L383,478 L384,477 L385,477 L386,476 L387,476 L388,475 L390,475 L391,474 L392,474 L395,471 L398,471 L399,470 L400,470 L401,469 L400,468 L400,467 L397,464 L397,463 L395,461 L395,460 L393,458 L393,457 L392,456 L392,451 L393,450 L394,450 L395,449 L397,449 L398,448 L399,448 L401,446 L402,446 L403,445 L406,445 L407,444 L414,444 L415,445 L416,445 L417,446 L418,446 L420,448 L421,448 L422,449 L423,449 L424,450 L425,450 L426,451 L427,451 L428,452 L429,452 L430,453 L431,453 L432,452 L432,450 L431,449 L431,447 L430,446 L429,446 L428,445 L427,445 L426,444 L424,444 L423,443 L422,443 L421,442 L419,442 L418,441 L418,437 L419,436 L423,436 L424,437 L425,437 L428,434 L431,434 L431,433 L432,432 L437,432 L438,431 L439,431 L440,430 L441,430 L443,428 L445,428 L446,427 L447,427 L450,424 L453,424 L456,421 L457,421 L458,420 L459,420 L460,419 L460,418 L462,416 L466,416 L466,415 L467,414 L468,414 L469,413 L472,413 L472,412 L473,411 L474,411 L475,410 L476,410 L476,406 L478,404 L481,404 L483,402 L484,402 L485,401 L485,400 L486,399 L488,399 L489,398 L494,398 L495,397 L500,397 L501,396 L506,396 L507,395 L513,395 L514,394 L519,394 L520,393 L525,393 L526,392 L531,392 L532,391 L538,391 L539,390 L544,390 L545,389 L550,389 L551,388 L556,388 L557,387 L563,387 L563,385 L564,384 L566,384 L567,383 L571,383 L572,382 L574,382 L574,381 L575,380 L579,380 L580,379 L584,379 L585,378 L590,378 L591,377 L593,377 L590,377 L589,376 L589,375 L588,374 L588,373 L587,372 L587,370 L586,369 L584,369 L583,368 L583,364 L584,363 L586,363 L586,360 L584,360 L583,359 L583,358 L582,358 L581,359 L578,359 L577,360 L574,360 L573,361 L570,361 L569,362 L566,362 L565,363 L561,363 L560,362 L560,358 L561,357 L564,357 L565,356 L566,356 L568,354 L570,354 L571,353 L573,353 L574,352 L576,352 L577,351 L578,351 L580,349 L581,349 L582,348 L583,348 L584,347 L586,347 L587,346 L589,346 L590,345 L592,345 L593,344 L595,344 L596,343 L597,343 L597,342 L598,341 L600,341 L601,340 L603,340 L604,339 L606,339 L607,338 L609,338 L610,337 L611,337 L611,336 L612,335 L614,335 L615,334 L617,334 L618,333 L620,333 L621,332 L622,332 L622,330 L623,329 L625,329 L626,328 L628,328 L629,327 L630,327 L632,325 L633,325 L632,324 L632,320 L633,319 L634,319 L635,318 L637,318 L638,317 L639,317 L639,316 L640,315 L641,315 L642,314 L643,314 L643,312 L644,311 L646,311 L647,310 L649,310 L650,309 L651,309 L652,308 L654,308 L655,307 L656,307 L657,306 L659,306 L660,305 L662,305 L663,304 L664,304 L665,303 L667,303 L668,302 L669,302 L670,301 L672,301 L673,300 L674,300 L675,299 L677,299 L678,298 L680,298 L681,297 L682,297 L683,296 L685,296 L686,295 L687,295 L688,294 L690,294 L691,293 L693,293 L694,292 L695,292 L696,291 L698,291 L699,290 L700,290 L701,289 L703,289 L704,288 L706,288 L707,287 L708,287 L709,286 L711,286 L712,285 L713,285 L714,284 L716,284 L717,283 L718,283 L719,282 L721,282 L722,281 L724,281 L725,280 L726,280 L727,279 L729,279 L730,278 L731,278 L732,277 L734,277 L735,276 L737,276 L738,275 L739,275 L740,274 L741,274 L740,274 L739,273 L739,270 L738,270 L737,269 L737,268 L736,267 L736,261 L737,260 L738,260 L739,259 L740,259 L741,258 L742,258 L743,257 L744,257 L745,256 L747,256 L748,255 L749,255 L750,254 L751,254 L752,253 L753,253 L753,250 L751,250 L750,249 L750,245 L748,245 L747,244 L747,240 L748,239 L749,239 L748,239 L747,240 L746,240 L745,241 L744,241 L743,242 L742,242 L741,243 L740,243 L739,244 L737,244 L736,245 L735,245 L734,246 L733,246 L732,247 L731,247 L730,248 L729,248 L728,249 L726,249 L725,250 L724,250 L723,251 L722,251 L721,252 L720,252 L719,253 L718,253 L717,254 L715,254 L714,255 L713,255 L712,256 L711,256 L710,257 L709,257 L708,258 L706,258 L705,259 L704,259 L703,260 L702,260 L701,261 L700,261 L699,262 L698,262 L697,263 L691,263 L690,262 L687,262 L686,261 L686,260 L685,260 L684,259 L684,250 L685,249 L686,249 L687,248 L688,248 L689,247 L690,247 L691,246 L692,246 L693,245 L694,245 L696,243 L697,243 L698,242 L699,242 L700,241 L701,241 L702,240 L703,240 L704,239 L705,239 L706,238 L707,238 L708,237 L709,237 L710,236 L711,236 L712,235 L713,235 L715,233 L716,233 L717,232 L718,232 L719,231 L720,231 L721,230 L722,230 L723,229 L724,229 L725,228 L726,228 L727,227 L728,227 L729,226 L730,226 L731,225 L730,226 L729,226 L728,227 L727,227 L726,228 L725,228 L724,229 L723,229 L722,230 L721,230 L720,231 L719,231 L718,232 L717,232 L716,233 L715,233 L714,234 L713,234 L712,235 L711,235 L710,236 L709,236 L708,237 L707,237 L706,238 L705,238 L704,239 L703,239 L702,240 L701,240 L700,241 L699,241 L698,242 L697,242 L696,243 L695,243 L694,244 L693,244 L692,245 L691,245 L690,246 L689,246 L688,247 L687,247 L686,248 L681,248 L680,247 L678,247 L677,246 L677,244 L676,243 L676,231 L677,230 L674,230 L673,229 L673,227 L672,226 L672,222 L673,221 L674,221 L675,220 L675,218 L676,217 L677,217 L679,215 L680,215 L682,213 L683,213 L685,211 L686,211 L688,209 L689,209 L691,207 L692,207 L694,205 L695,205 L697,203 L698,203 L700,201 L701,201 L703,199 L704,199 L706,197 L707,197 L709,195 L710,195 L712,193 L713,193 L715,191 L716,191 L718,189 L719,189 L721,187 L722,187 L724,185 L725,185 L726,184 L725,184 L724,183 L724,174 L725,173 L721,173 L720,172 L720,169 L718,169 L715,166 L715,163 L713,161 L713,157 L710,157 L709,156 L709,154 L707,154 L706,153 L706,146 L707,145 L704,145 L703,144 L703,142 L702,141 L701,141 L700,140 L700,138 L699,137 L699,136 L697,134 L697,131 L696,131 L695,130 L695,129 L693,129 L692,128 L692,120 L693,119 L690,119 L689,118 L689,116 L688,116 L687,115 L687,114 L686,113 L686,112 L684,110 L684,108 L682,106 L682,102 L679,102 L678,101 L678,98 L677,98 L676,97 L676,94 L675,93 L675,92 L674,92 L673,91 L673,87 L671,87 L670,86 L670,85 L669,85 L668,84 L668,80 L669,79 L667,79 L666,78 L666,76 L665,76 L664,75 L664,70 L660,70 L659,69 L659,66 L658,65 L658,61 L657,61 L656,60 L656,57 L655,57 L654,56 L654,50 L653,50 L652,49 L651,49 L650,48 L650,45 L648,43 L648,41 L647,41 L646,40 L645,40 L644,39 L644,34 L645,33 L642,33 L641,34 L637,34 L635,32 L635,31 L634,31 L633,30 L632,30 L630,28 L626,28 L625,27 L625,21 L626,20 L626,18 L625,18 L624,17 L624,12 L625,11 L625,10 L624,11 L623,11 L622,12 L618,12 L617,11 L616,11" stroke-width="2" stroke="lime" fill="black" fill-opacity="0" />
</svg>