<?xml version="1.0" encoding="UTF-8"?>
<svg xmlns="http://www.w3.org/2000/svg" xmlns:xlink="http://www.w3.org/1999/xlink"
     width="743.9862009178426" height="579.2618558948557" viewBox="0 0 743.9862009178426 579.2618558948557">
<defs>
</defs>
<path d="M603,0 L603,0 L603,2 L601,4 L597,4 L596,3 L595,4 L591,4 L590,3 L589,4 L589,5 L586,8 L586,9 L584,11 L584,12 L581,15 L578,15 L576,17 L572,17 L571,16 L571,15 L570,16 L570,17 L568,19 L568,20 L567,21 L563,21 L562,22 L562,23 L561,24 L556,24 L555,25 L555,26 L554,27 L549,27 L548,28 L548,29 L547,30 L547,31 L545,33 L545,34 L543,36 L534,36 L533,37 L533,38 L532,39 L532,40 L530,42 L530,43 L529,44 L525,44 L524,45 L524,46 L522,48 L518,48 L517,47 L517,46 L516,45 L516,44 L515,45 L510,45 L509,44 L507,44 L506,43 L502,43 L501,44 L501,45 L499,47 L495,47 L495,48 L494,49 L494,50 L493,51 L493,52 L492,53 L489,53 L488,54 L488,55 L487,56 L483,56 L481,58 L478,58 L478,59 L476,61 L472,61 L472,62 L471,63 L471,64 L470,65 L467,65 L467,66 L466,67 L466,68 L465,69 L465,71 L463,73 L460,73 L460,74 L459,75 L459,76 L458,77 L458,79 L457,80 L457,82 L456,83 L456,84 L455,85 L455,87 L454,88 L453,88 L452,89 L451,89 L451,90 L450,91 L450,92 L449,93 L446,93 L444,95 L438,95 L438,96 L436,98 L434,98 L433,99 L430,99 L430,100 L428,102 L426,102 L425,103 L425,104 L423,106 L421,106 L420,107 L417,107 L417,108 L415,110 L413,110 L412,111 L410,111 L410,112 L409,113 L406,113 L406,114 L404,116 L402,116 L401,117 L399,117 L399,118 L398,119 L395,119 L395,120 L393,122 L389,122 L389,123 L388,124 L385,124 L384,125 L382,125 L382,127 L381,128 L379,128 L379,129 L378,130 L377,130 L376,131 L374,131 L372,133 L370,133 L370,134 L369,135 L368,135 L367,136 L363,136 L363,137 L362,138 L360,138 L360,139 L359,140 L357,140 L357,141 L356,142 L352,142 L352,143 L350,145 L346,145 L346,147 L345,148 L344,148 L342,150 L340,150 L340,151 L339,152 L338,152 L336,154 L332,154 L332,155 L331,156 L329,156 L328,157 L327,157 L325,159 L322,159 L321,160 L320,160 L319,161 L318,161 L317,162 L316,162 L316,163 L314,165 L312,165 L312,166 L311,167 L309,167 L309,168 L308,169 L307,169 L306,170 L304,170 L303,171 L302,171 L300,173 L300,174 L299,175 L295,175 L295,176 L294,177 L293,177 L292,178 L291,178 L289,180 L288,180 L287,181 L286,181 L285,182 L284,182 L283,183 L281,183 L280,184 L279,184 L277,186 L276,186 L275,187 L274,187 L271,190 L268,190 L268,191 L267,192 L266,192 L265,193 L263,193 L263,195 L262,196 L261,196 L260,197 L259,197 L258,198 L257,198 L256,199 L255,199 L255,200 L254,201 L252,201 L251,202 L250,202 L248,204 L245,204 L243,206 L241,206 L241,207 L239,209 L237,209 L237,210 L236,211 L234,211 L233,212 L230,212 L230,213 L229,214 L225,214 L225,216 L224,217 L223,217 L222,218 L219,218 L218,219 L217,219 L216,220 L212,220 L211,221 L211,222 L209,224 L207,224 L205,226 L204,226 L203,227 L202,227 L201,228 L200,228 L199,229 L197,229 L197,230 L196,231 L194,231 L193,232 L193,233 L192,234 L189,234 L188,235 L187,235 L185,237 L183,237 L183,239 L182,240 L179,240 L179,241 L178,242 L176,242 L175,243 L175,244 L174,245 L170,245 L169,244 L168,244 L163,239 L162,239 L157,234 L156,234 L151,229 L150,229 L148,227 L148,228 L147,229 L141,229 L141,233 L140,234 L134,234 L133,235 L125,235 L125,236 L123,238 L122,238 L121,239 L120,239 L119,240 L118,240 L117,241 L116,241 L115,242 L114,242 L113,243 L113,244 L112,245 L111,245 L111,247 L110,248 L108,248 L106,250 L106,251 L103,254 L102,254 L101,255 L101,256 L100,257 L97,257 L98,258 L98,259 L99,260 L99,263 L100,264 L101,264 L102,265 L103,265 L105,267 L105,269 L107,271 L107,278 L106,279 L105,279 L105,281 L103,283 L100,283 L100,284 L99,285 L98,285 L97,286 L95,286 L94,287 L93,287 L93,288 L92,289 L88,289 L88,290 L87,291 L86,291 L85,292 L82,292 L82,294 L81,295 L78,295 L78,296 L77,297 L75,297 L75,298 L74,299 L73,299 L72,300 L72,301 L71,302 L68,302 L68,303 L67,304 L64,304 L64,305 L63,306 L60,306 L60,307 L59,308 L56,308 L56,309 L55,310 L51,310 L51,311 L50,312 L46,312 L46,314 L45,315 L44,315 L44,316 L43,317 L41,317 L40,318 L38,318 L38,319 L37,320 L34,320 L34,321 L33,322 L28,322 L28,324 L27,325 L23,325 L23,326 L22,327 L16,327 L16,329 L15,330 L12,330 L12,332 L11,333 L9,333 L9,335 L8,336 L0,336 L0,349 L5,349 L7,351 L7,355 L9,355 L10,356 L10,360 L9,361 L7,361 L8,361 L9,362 L9,363 L10,364 L10,367 L13,367 L14,368 L15,368 L16,369 L16,370 L18,372 L18,374 L20,376 L20,377 L22,377 L24,379 L24,383 L25,383 L26,384 L26,387 L27,387 L28,388 L28,390 L29,391 L29,394 L30,394 L31,395 L31,397 L33,397 L34,398 L34,400 L35,401 L35,404 L36,404 L37,405 L37,406 L38,407 L38,408 L39,409 L39,411 L40,411 L41,412 L41,414 L42,415 L42,418 L43,418 L44,419 L45,419 L46,420 L46,421 L47,422 L47,425 L50,425 L51,426 L51,427 L52,428 L53,428 L54,429 L54,433 L55,433 L56,434 L56,437 L58,439 L58,440 L59,441 L59,442 L60,442 L61,443 L61,446 L63,448 L63,451 L64,451 L66,453 L66,457 L67,458 L67,459 L68,460 L69,460 L70,461 L70,464 L72,464 L73,465 L73,468 L74,468 L75,469 L75,472 L77,474 L77,477 L79,477 L80,478 L80,480 L81,481 L81,482 L82,482 L83,483 L83,485 L85,487 L85,491 L86,491 L87,492 L87,496 L88,497 L88,500 L89,500 L91,502 L91,503 L92,504 L92,506 L93,506 L94,507 L94,508 L97,511 L97,512 L98,513 L98,515 L100,517 L100,518 L101,518 L102,519 L102,523 L103,524 L103,526 L104,526 L105,527 L105,528 L107,530 L107,532 L108,533 L108,535 L109,535 L110,536 L110,537 L111,537 L112,538 L112,540 L113,541 L113,543 L114,544 L114,546 L116,546 L117,547 L117,548 L118,549 L118,551 L119,552 L120,552 L121,553 L121,555 L122,556 L122,557 L123,558 L123,561 L124,561 L125,562 L125,564 L126,565 L126,567 L127,567 L128,568 L128,569 L129,570 L129,572 L130,573 L130,574 L131,574 L132,575 L132,576 L133,576 L134,577 L134,579 L145,579 L145,577 L148,574 L152,574 L155,571 L156,571 L161,566 L162,566 L163,565 L168,565 L169,566 L172,563 L173,563 L179,557 L180,557 L186,551 L187,551 L192,546 L195,546 L196,545 L199,545 L200,544 L202,544 L206,540 L207,540 L211,536 L215,536 L216,535 L218,535 L223,530 L225,530 L228,527 L230,527 L231,526 L232,526 L235,523 L236,523 L237,522 L239,522 L242,519 L245,519 L249,515 L250,515 L251,514 L252,514 L253,513 L259,513 L260,514 L262,514 L264,512 L265,512 L266,511 L267,511 L268,510 L269,510 L270,509 L271,509 L275,505 L278,505 L280,503 L281,503 L282,502 L283,502 L284,501 L285,501 L286,500 L287,500 L290,497 L291,497 L292,496 L293,496 L294,495 L295,495 L297,493 L298,493 L300,491 L301,491 L302,490 L302,489 L303,488 L303,487 L305,485 L305,484 L306,483 L307,483 L309,481 L310,481 L311,480 L312,480 L315,477 L317,477 L318,476 L320,476 L322,474 L324,474 L326,472 L328,472 L330,470 L331,470 L332,469 L333,469 L334,468 L335,468 L336,467 L337,467 L339,465 L340,465 L342,463 L346,463 L347,464 L347,466 L348,467 L348,470 L349,471 L349,474 L350,475 L350,478 L351,479 L351,480 L352,481 L355,478 L357,478 L360,475 L361,475 L362,474 L363,474 L365,472 L366,472 L367,471 L368,471 L369,470 L370,470 L372,468 L373,468 L374,467 L375,467 L376,466 L377,466 L378,465 L380,465 L381,464 L382,464 L385,461 L388,461 L389,460 L390,460 L391,459 L390,458 L390,457 L387,454 L387,453 L385,451 L385,450 L383,448 L383,447 L382,446 L382,441 L383,440 L384,440 L385,439 L387,439 L388,438 L389,438 L391,436 L392,436 L393,435 L396,435 L397,434 L404,434 L405,435 L406,435 L407,436 L408,436 L410,438 L411,438 L412,439 L413,439 L414,440 L415,440 L416,441 L417,441 L418,442 L419,442 L420,443 L421,443 L422,442 L422,440 L421,439 L421,437 L420,436 L419,436 L418,435 L417,435 L416,434 L414,434 L413,433 L412,433 L411,432 L409,432 L408,431 L408,427 L409,426 L413,426 L414,427 L415,427 L418,424 L421,424 L421,423 L422,422 L427,422 L428,421 L429,421 L430,420 L431,420 L433,418 L435,418 L436,417 L437,417 L440,414 L443,414 L446,411 L447,411 L448,410 L449,410 L450,409 L450,408 L452,406 L456,406 L456,405 L457,404 L458,404 L459,403 L462,403 L462,402 L463,401 L464,401 L465,400 L466,400 L466,396 L468,394 L471,394 L473,392 L474,392 L475,391 L475,390 L476,389 L478,389 L479,388 L484,388 L485,387 L490,387 L491,386 L496,386 L497,385 L503,385 L504,384 L509,384 L510,383 L515,383 L516,382 L521,382 L522,381 L528,381 L529,380 L534,380 L535,379 L540,379 L541,378 L546,378 L547,377 L553,377 L553,375 L554,374 L556,374 L557,373 L561,373 L562,372 L564,372 L564,371 L565,370 L569,370 L570,369 L574,369 L575,368 L580,368 L581,367 L583,367 L580,367 L579,366 L579,365 L578,364 L578,363 L577,362 L577,360 L576,359 L574,359 L573,358 L573,354 L574,353 L576,353 L576,350 L574,350 L573,349 L573,348 L572,348 L571,349 L568,349 L567,350 L564,350 L563,351 L560,351 L559,352 L556,352 L555,353 L551,353 L550,352 L550,348 L551,347 L554,347 L555,346 L556,346 L558,344 L560,344 L561,343 L563,343 L564,342 L566,342 L567,341 L568,341 L570,339 L571,339 L572,338 L573,338 L574,337 L576,337 L577,336 L579,336 L580,335 L582,335 L583,334 L585,334 L586,333 L587,333 L587,332 L588,331 L590,331 L591,330 L593,330 L594,329 L596,329 L597,328 L599,328 L600,327 L601,327 L601,326 L602,325 L604,325 L605,324 L607,324 L608,323 L610,323 L611,322 L612,322 L612,320 L613,319 L615,319 L616,318 L618,318 L619,317 L620,317 L622,315 L623,315 L622,314 L622,310 L623,309 L624,309 L625,308 L627,308 L628,307 L629,307 L629,306 L630,305 L631,305 L632,304 L633,304 L633,302 L634,301 L636,301 L637,300 L639,300 L640,299 L641,299 L642,298 L644,298 L645,297 L646,297 L647,296 L649,296 L650,295 L652,295 L653,294 L654,294 L655,293 L657,293 L658,292 L659,292 L660,291 L662,291 L663,290 L664,290 L665,289 L667,289 L668,288 L670,288 L671,287 L672,287 L673,286 L675,286 L676,285 L677,285 L678,284 L680,284 L681,283 L683,283 L684,282 L685,282 L686,281 L688,281 L689,280 L690,280 L691,279 L693,279 L694,278 L696,278 L697,277 L698,277 L699,276 L701,276 L702,275 L703,275 L704,274 L706,274 L707,273 L708,273 L709,272 L711,272 L712,271 L714,271 L715,270 L716,270 L717,269 L719,269 L720,268 L721,268 L722,267 L724,267 L725,266 L727,266 L728,265 L729,265 L730,264 L731,264 L730,264 L729,263 L729,260 L728,260 L727,259 L727,258 L726,257 L726,251 L727,250 L728,250 L729,249 L730,249 L731,248 L732,248 L733,247 L734,247 L735,246 L737,246 L738,245 L739,245 L740,244 L743,244 L743,240 L741,240 L740,239 L740,235 L738,235 L737,234 L737,230 L738,229 L739,229 L738,229 L737,230 L736,230 L735,231 L734,231 L733,232 L732,232 L731,233 L730,233 L729,234 L727,234 L726,235 L725,235 L724,236 L723,236 L722,237 L721,237 L720,238 L719,238 L718,239 L716,239 L715,240 L714,240 L713,241 L712,241 L711,242 L710,242 L709,243 L708,243 L707,244 L705,244 L704,245 L703,245 L702,246 L701,246 L700,247 L699,247 L698,248 L696,248 L695,249 L694,249 L693,250 L692,250 L691,251 L690,251 L689,252 L688,252 L687,253 L681,253 L680,252 L677,252 L676,251 L676,250 L675,250 L674,249 L674,240 L675,239 L676,239 L677,238 L678,238 L679,237 L680,237 L681,236 L682,236 L683,235 L684,235 L686,233 L687,233 L688,232 L689,232 L690,231 L691,231 L692,230 L693,230 L694,229 L695,229 L696,228 L697,228 L698,227 L699,227 L700,226 L701,226 L702,225 L703,225 L705,223 L706,223 L707,222 L708,222 L709,221 L710,221 L711,220 L712,220 L713,219 L714,219 L715,218 L716,218 L717,217 L718,217 L719,216 L720,216 L721,215 L720,216 L719,216 L718,217 L717,217 L716,218 L715,218 L714,219 L713,219 L712,220 L711,220 L710,221 L709,221 L708,222 L707,222 L706,223 L705,223 L704,224 L703,224 L702,225 L701,225 L700,226 L699,226 L698,227 L697,227 L696,228 L695,228 L694,229 L693,229 L692,230 L691,230 L690,231 L689,231 L688,232 L687,232 L686,233 L685,233 L684,234 L683,234 L682,235 L681,235 L680,236 L679,236 L678,237 L677,237 L676,238 L671,238 L670,237 L668,237 L667,236 L667,234 L666,233 L666,221 L667,220 L664,220 L663,219 L663,217 L662,216 L662,212 L663,211 L664,211 L665,210 L665,208 L666,207 L667,207 L669,205 L670,205 L672,203 L673,203 L675,201 L676,201 L678,199 L679,199 L681,197 L682,197 L684,195 L685,195 L687,193 L688,193 L690,191 L691,191 L693,189 L694,189 L696,187 L697,187 L699,185 L700,185 L702,183 L703,183 L705,181 L706,181 L708,179 L709,179 L711,177 L712,177 L714,175 L715,175 L716,174 L715,174 L714,173 L714,164 L715,163 L711,163 L710,162 L710,159 L708,159 L705,156 L705,153 L703,151 L703,147 L700,147 L699,146 L699,144 L697,144 L696,143 L696,136 L697,135 L694,135 L693,134 L693,132 L692,131 L691,131 L690,130 L690,128 L689,127 L689,126 L687,124 L687,121 L686,121 L685,120 L685,119 L683,119 L682,118 L682,110 L683,109 L680,109 L679,108 L679,106 L678,106 L677,105 L677,104 L676,103 L676,102 L674,100 L674,98 L672,96 L672,92 L669,92 L668,91 L668,88 L667,88 L666,87 L666,84 L665,83 L665,82 L664,82 L663,81 L663,77 L661,77 L660,76 L660,75 L659,75 L658,74 L658,70 L659,69 L657,69 L656,68 L656,66 L655,66 L654,65 L654,60 L650,60 L649,59 L649,56 L648,55 L648,51 L647,51 L646,50 L646,47 L645,47 L644,46 L644,40 L643,40 L642,39 L641,39 L640,38 L640,35 L638,33 L638,31 L637,31 L636,30 L635,30 L634,29 L634,24 L635,23 L632,23 L631,24 L627,24 L625,22 L625,21 L624,21 L623,20 L622,20 L620,18 L616,18 L615,17 L615,11 L616,10 L616,8 L615,8 L614,7 L614,2 L615,1 L615,0" stroke-width="2" stroke="lime" fill="black" fill-opacity="0" />
</svg>