<?xml version="1.0" encoding="UTF-8"?>
<svg xmlns="http://www.w3.org/2000/svg" xmlns:xlink="http://www.w3.org/1999/xlink"
     width="545.893574882529" height="765.8659687289478" viewBox="0 0 545.893574882529 765.8659687289478">
<defs>
</defs>
<path d="M284,10 L284,10 L284,15 L283,16 L281,16 L281,24 L282,25 L282,29 L281,30 L277,30 L276,29 L276,27 L275,26 L275,25 L271,25 L269,23 L269,22 L269,24 L270,25 L270,28 L271,29 L271,36 L270,37 L269,37 L269,38 L270,39 L270,42 L271,43 L271,45 L272,46 L272,49 L273,50 L273,52 L274,53 L274,56 L275,57 L275,61 L274,62 L270,62 L269,63 L267,63 L266,64 L265,64 L265,65 L263,67 L262,67 L261,68 L254,68 L254,70 L253,71 L251,71 L250,72 L246,72 L245,71 L243,71 L243,72 L241,74 L230,74 L229,73 L229,72 L228,71 L228,70 L227,69 L227,68 L224,65 L224,64 L223,63 L223,61 L222,60 L222,59 L221,58 L221,57 L220,56 L220,55 L219,54 L219,52 L218,51 L218,50 L217,49 L217,48 L216,47 L216,46 L215,45 L215,44 L214,43 L214,42 L212,42 L210,40 L210,39 L209,38 L209,37 L208,36 L208,35 L207,34 L207,33 L206,32 L206,31 L205,30 L205,29 L204,28 L204,27 L203,26 L203,25 L202,24 L202,23 L201,22 L201,21 L200,20 L200,19 L199,18 L199,17 L198,16 L198,15 L197,14 L197,13 L197,14 L196,15 L192,15 L191,14 L191,16 L190,17 L188,17 L188,18 L187,19 L184,19 L183,20 L182,20 L182,21 L181,22 L170,22 L170,24 L169,25 L167,25 L167,26 L166,27 L164,27 L163,28 L159,28 L159,29 L158,30 L153,30 L151,28 L151,31 L150,32 L147,32 L146,33 L146,35 L145,36 L143,36 L143,37 L142,38 L140,38 L139,39 L134,39 L133,40 L129,40 L129,42 L127,44 L122,44 L121,43 L120,44 L116,44 L116,45 L115,46 L112,46 L112,48 L111,49 L108,49 L107,50 L104,50 L104,51 L103,52 L99,52 L99,53 L98,54 L95,54 L95,55 L94,56 L90,56 L90,57 L89,58 L88,58 L87,59 L82,59 L81,58 L81,59 L80,60 L75,60 L74,59 L74,63 L72,65 L67,65 L66,64 L66,66 L65,67 L62,67 L62,68 L61,69 L54,69 L53,68 L53,71 L52,72 L49,72 L49,73 L48,74 L45,74 L45,75 L44,76 L33,76 L30,73 L28,73 L27,72 L26,72 L25,71 L37,83 L37,87 L35,89 L34,89 L35,90 L35,91 L38,94 L38,95 L41,98 L41,102 L40,103 L36,103 L35,102 L34,102 L33,101 L32,101 L31,100 L30,100 L28,98 L27,98 L26,97 L25,97 L24,96 L23,96 L22,95 L21,95 L20,94 L19,94 L18,93 L17,93 L16,92 L15,92 L14,91 L14,92 L13,93 L15,95 L15,99 L14,100 L10,100 L10,101 L14,105 L14,110 L16,112 L16,116 L15,117 L16,118 L16,122 L15,123 L17,125 L18,125 L20,127 L20,132 L22,134 L22,138 L21,139 L23,141 L23,144 L24,145 L24,146 L25,147 L26,147 L28,149 L29,149 L32,152 L32,156 L31,157 L31,160 L30,161 L29,161 L30,162 L31,162 L32,163 L32,167 L33,168 L34,168 L36,170 L37,170 L39,172 L39,177 L41,179 L41,181 L44,184 L44,194 L43,195 L42,195 L43,196 L43,206 L42,207 L41,207 L41,211 L42,212 L43,212 L45,214 L45,222 L46,223 L47,223 L48,224 L49,224 L50,225 L50,231 L49,232 L48,232 L49,233 L50,233 L51,234 L52,234 L54,236 L54,242 L55,243 L55,244 L56,244 L57,245 L58,245 L59,246 L60,246 L61,247 L61,251 L62,251 L64,253 L64,256 L65,256 L66,257 L67,257 L68,258 L68,260 L69,260 L70,261 L70,262 L71,262 L72,263 L73,263 L74,264 L75,264 L76,265 L77,265 L78,266 L78,270 L79,270 L80,271 L80,276 L79,277 L80,278 L80,281 L81,281 L83,283 L83,285 L84,285 L85,286 L85,290 L86,291 L86,292 L87,293 L87,294 L88,295 L88,297 L89,298 L89,301 L90,301 L91,302 L91,304 L92,304 L94,306 L94,311 L93,312 L94,312 L96,314 L96,316 L97,316 L98,317 L98,319 L99,320 L99,322 L100,323 L100,325 L101,325 L102,326 L102,332 L103,332 L104,333 L104,335 L106,337 L106,338 L107,339 L107,343 L108,344 L108,346 L109,347 L109,350 L111,352 L111,354 L113,356 L113,357 L114,358 L114,359 L115,360 L115,364 L116,364 L117,365 L117,367 L118,368 L118,373 L119,373 L120,374 L120,375 L121,376 L121,378 L122,379 L122,382 L123,383 L123,384 L124,385 L124,386 L125,387 L125,390 L126,391 L126,394 L127,395 L128,395 L131,398 L131,404 L132,405 L132,407 L133,408 L133,409 L134,410 L134,412 L136,414 L136,416 L137,417 L137,421 L138,421 L139,422 L139,426 L140,427 L140,428 L141,429 L141,431 L142,432 L142,435 L143,435 L144,436 L144,440 L146,440 L148,442 L148,444 L149,445 L149,446 L150,447 L150,449 L151,450 L151,452 L153,454 L153,458 L154,459 L154,462 L155,462 L156,463 L156,465 L158,467 L158,469 L159,470 L159,473 L160,474 L160,476 L161,477 L161,478 L162,479 L162,483 L163,483 L164,484 L164,485 L165,486 L165,487 L166,488 L166,492 L168,494 L168,496 L169,497 L169,498 L170,499 L170,500 L171,501 L171,502 L172,503 L172,510 L173,510 L174,511 L174,515 L176,517 L176,520 L177,521 L177,523 L178,524 L178,525 L179,525 L180,526 L180,528 L181,529 L181,532 L183,534 L183,536 L184,537 L184,539 L186,541 L186,543 L187,544 L187,546 L188,546 L189,547 L189,552 L190,553 L190,555 L191,556 L191,560 L192,561 L192,562 L194,564 L194,566 L195,567 L195,568 L196,569 L196,570 L197,571 L197,580 L199,580 L202,583 L202,586 L203,587 L203,590 L205,592 L205,593 L206,594 L206,597 L207,598 L207,600 L208,601 L208,602 L209,603 L209,606 L210,607 L210,608 L212,610 L212,612 L213,613 L213,615 L214,615 L215,616 L215,623 L216,623 L217,624 L217,625 L219,627 L219,630 L220,631 L220,633 L222,635 L222,640 L223,640 L224,641 L224,643 L225,644 L225,647 L226,648 L226,651 L227,651 L228,652 L228,653 L230,655 L230,658 L231,658 L232,659 L232,666 L233,666 L234,667 L234,672 L235,672 L236,673 L236,675 L237,675 L238,676 L238,680 L239,680 L240,681 L240,684 L241,685 L241,686 L243,688 L243,690 L244,691 L244,693 L245,694 L245,698 L246,699 L246,701 L247,702 L248,702 L249,703 L249,707 L250,708 L250,711 L251,711 L252,712 L252,715 L253,716 L253,718 L254,719 L254,723 L255,723 L256,724 L256,731 L258,731 L259,732 L260,732 L261,733 L261,736 L263,738 L263,746 L265,746 L266,747 L266,751 L271,751 L272,752 L272,755 L273,754 L277,754 L278,753 L278,752 L279,751 L279,750 L280,749 L286,749 L286,748 L287,747 L292,747 L293,746 L293,745 L295,743 L296,743 L297,742 L297,741 L299,739 L307,739 L308,738 L312,738 L313,737 L313,736 L314,735 L317,735 L317,734 L318,733 L324,733 L324,732 L326,730 L330,730 L331,731 L331,732 L331,730 L332,729 L335,729 L335,727 L336,726 L339,726 L340,725 L343,725 L343,724 L344,723 L344,722 L345,721 L350,721 L352,719 L353,719 L353,718 L355,716 L361,716 L362,715 L368,715 L368,714 L369,713 L375,713 L375,711 L376,710 L377,710 L377,709 L378,708 L384,708 L385,707 L387,707 L387,706 L388,705 L391,705 L391,704 L392,703 L398,703 L398,701 L399,700 L400,700 L401,699 L405,699 L406,698 L407,698 L408,697 L410,697 L410,696 L411,695 L413,695 L414,694 L416,694 L416,693 L417,692 L423,692 L423,691 L424,690 L428,690 L428,689 L429,688 L432,688 L432,687 L433,686 L435,686 L437,684 L440,684 L443,681 L448,681 L450,679 L454,679 L457,676 L460,676 L461,675 L462,675 L463,674 L464,674 L465,673 L467,673 L468,672 L473,672 L473,671 L474,670 L475,670 L476,669 L477,669 L477,668 L478,667 L481,667 L483,665 L489,665 L489,664 L490,663 L491,663 L491,662 L492,661 L499,661 L499,660 L501,658 L502,658 L503,657 L506,657 L508,655 L512,655 L515,652 L516,652 L517,651 L518,651 L519,650 L520,650 L520,649 L521,648 L522,648 L523,647 L524,647 L524,644 L525,643 L524,642 L524,636 L523,635 L523,634 L522,633 L522,632 L520,630 L520,629 L519,628 L519,627 L517,625 L517,624 L516,623 L516,618 L517,617 L517,614 L518,613 L522,613 L523,614 L523,615 L525,617 L525,618 L526,619 L526,618 L527,617 L535,617 L534,616 L534,615 L532,613 L532,611 L531,610 L531,609 L528,606 L528,605 L525,602 L525,601 L523,599 L523,598 L520,595 L520,594 L518,592 L518,591 L515,588 L515,587 L512,584 L512,583 L510,581 L510,580 L507,577 L507,576 L505,574 L505,573 L502,570 L502,569 L499,566 L499,565 L497,563 L497,562 L494,559 L494,558 L492,556 L492,555 L489,552 L489,551 L486,548 L486,547 L485,546 L485,543 L484,542 L484,541 L482,539 L482,536 L481,535 L481,534 L479,532 L479,529 L477,527 L477,524 L476,523 L476,522 L475,521 L475,514 L476,513 L477,513 L476,512 L476,509 L474,507 L474,504 L472,502 L472,499 L471,498 L471,496 L469,494 L469,492 L468,491 L468,489 L467,488 L467,486 L465,484 L465,482 L464,481 L464,479 L463,478 L463,476 L462,475 L462,473 L457,468 L456,468 L452,464 L452,463 L451,462 L451,461 L450,460 L450,455 L449,454 L449,453 L448,452 L448,450 L447,449 L447,448 L446,447 L446,446 L445,445 L445,444 L444,443 L444,441 L443,440 L443,438 L442,437 L442,435 L441,434 L441,432 L440,431 L440,430 L439,429 L439,427 L438,426 L438,422 L440,420 L443,420 L444,419 L447,419 L448,418 L451,418 L452,417 L454,417 L455,416 L455,413 L456,412 L463,412 L464,413 L466,413 L464,413 L463,412 L460,412 L459,411 L456,411 L455,410 L455,409 L454,408 L453,408 L451,406 L450,406 L448,404 L447,404 L444,401 L443,401 L441,399 L440,399 L438,397 L437,397 L435,395 L434,395 L432,393 L431,393 L428,390 L427,390 L425,388 L424,388 L421,385 L421,384 L420,383 L420,382 L419,381 L419,379 L417,377 L417,374 L415,372 L415,370 L414,369 L414,366 L413,365 L413,362 L412,361 L412,357 L413,356 L414,356 L418,352 L419,352 L424,347 L425,347 L427,345 L427,344 L426,343 L423,346 L422,346 L417,351 L416,351 L412,355 L408,355 L407,354 L407,348 L404,345 L404,340 L405,339 L405,338 L406,337 L406,334 L405,333 L405,332 L404,331 L404,329 L403,328 L403,327 L402,326 L402,324 L401,323 L401,322 L400,321 L400,319 L399,318 L399,317 L398,316 L398,314 L397,313 L397,312 L394,309 L394,305 L393,304 L393,303 L392,302 L392,300 L391,299 L391,298 L390,297 L390,295 L387,292 L387,291 L383,291 L382,290 L382,288 L381,287 L381,285 L380,284 L380,281 L379,280 L379,278 L377,276 L377,274 L376,273 L376,270 L375,269 L375,266 L374,265 L374,264 L373,263 L373,217 L370,217 L369,216 L369,195 L368,194 L368,174 L368,189 L367,190 L363,190 L362,189 L362,179 L360,179 L359,178 L357,178 L357,188 L358,189 L358,205 L359,206 L359,214 L358,215 L354,215 L353,214 L353,209 L352,208 L352,204 L351,203 L351,195 L350,194 L350,186 L349,185 L349,181 L349,190 L348,191 L348,199 L347,200 L342,200 L341,199 L341,198 L340,197 L340,195 L339,194 L339,189 L338,188 L338,182 L337,181 L337,176 L336,175 L336,170 L335,169 L335,164 L334,163 L334,157 L333,156 L333,151 L332,150 L332,145 L331,144 L331,139 L330,138 L330,135 L329,135 L328,134 L328,133 L327,132 L327,130 L326,129 L326,127 L325,126 L325,125 L320,125 L319,124 L319,119 L318,118 L318,114 L317,113 L317,110 L316,109 L316,106 L315,105 L315,104 L314,104 L312,102 L312,100 L311,99 L311,96 L310,95 L310,92 L309,91 L309,87 L308,86 L308,82 L307,81 L307,78 L306,77 L306,73 L305,72 L305,68 L304,67 L304,64 L303,63 L303,59 L302,58 L302,55 L301,54 L301,50 L300,49 L300,45 L299,44 L299,40 L298,39 L298,35 L297,34 L297,31 L296,30 L296,26 L295,25 L295,21 L294,20 L294,16 L293,15 L293,12 L292,11 L292,10 L291,11 L285,11" stroke-width="2" stroke="lime" fill="black" fill-opacity="0" />
</svg>