<?xml version="1.0" encoding="UTF-8"?>
<svg xmlns="http://www.w3.org/2000/svg" xmlns:xlink="http://www.w3.org/1999/xlink"
     width="735.7479469830297" height="512.8634108792673" viewBox="0 0 735.7479469830297 512.8634108792673">
<defs>
</defs>
<path d="M118,10 L118,10 L120,12 L120,19 L119,20 L119,22 L118,23 L118,28 L117,29 L116,29 L117,29 L118,30 L118,34 L119,35 L120,35 L121,36 L122,36 L123,37 L124,37 L125,38 L126,38 L127,39 L128,39 L129,40 L130,40 L131,41 L132,41 L133,42 L134,42 L135,43 L136,43 L137,44 L138,44 L139,45 L140,45 L142,47 L143,47 L144,48 L145,48 L146,49 L147,49 L148,50 L149,50 L150,51 L151,51 L152,52 L153,52 L154,53 L155,53 L156,54 L157,54 L158,55 L159,55 L160,56 L161,56 L162,57 L163,57 L164,58 L165,58 L167,60 L168,60 L169,61 L170,61 L171,62 L172,62 L173,63 L174,63 L175,64 L176,64 L177,65 L178,65 L179,66 L180,66 L181,67 L182,67 L183,68 L184,68 L185,69 L186,69 L187,70 L188,70 L191,73 L192,73 L193,74 L194,74 L195,75 L196,75 L197,76 L198,76 L199,77 L199,81 L198,82 L194,82 L193,81 L192,81 L193,81 L194,82 L195,82 L196,83 L197,83 L198,84 L200,84 L201,85 L202,85 L203,86 L204,86 L205,87 L207,87 L208,88 L209,88 L210,89 L211,89 L212,90 L214,90 L215,91 L216,91 L217,92 L218,92 L219,93 L221,93 L222,94 L223,94 L224,95 L225,95 L226,96 L228,96 L229,97 L230,97 L231,98 L232,98 L233,99 L234,99 L235,100 L236,100 L237,101 L237,103 L238,103 L239,104 L240,104 L241,105 L243,105 L244,106 L245,106 L246,107 L247,107 L248,108 L250,108 L251,109 L252,109 L253,110 L255,110 L256,111 L257,111 L258,112 L259,112 L260,113 L262,113 L263,114 L264,114 L265,115 L267,115 L268,116 L269,116 L270,117 L271,117 L272,118 L274,118 L275,119 L276,119 L277,120 L279,120 L280,121 L281,121 L282,122 L283,122 L284,123 L286,123 L287,124 L288,124 L289,125 L291,125 L292,126 L293,126 L294,127 L295,127 L296,128 L296,132 L295,133 L287,133 L286,132 L285,132 L284,131 L282,131 L281,130 L279,130 L278,129 L277,129 L276,128 L274,128 L273,127 L272,127 L272,128 L271,129 L271,130 L270,131 L270,132 L268,134 L267,134 L266,135 L261,135 L260,134 L258,134 L257,133 L254,133 L253,132 L251,132 L250,131 L248,131 L247,130 L244,130 L243,129 L241,129 L240,128 L238,128 L237,127 L234,127 L233,126 L231,126 L230,125 L227,125 L226,124 L224,124 L223,123 L221,123 L220,122 L217,122 L216,121 L214,121 L213,120 L211,120 L210,119 L207,119 L206,118 L204,118 L203,117 L201,117 L200,116 L197,116 L196,115 L194,115 L193,114 L190,114 L189,113 L187,113 L186,112 L184,112 L183,111 L180,111 L179,110 L177,110 L176,109 L174,109 L173,108 L170,108 L169,107 L167,107 L166,106 L164,106 L163,105 L160,105 L159,104 L157,104 L156,103 L153,103 L152,102 L150,102 L149,101 L147,101 L146,100 L143,100 L142,99 L140,99 L139,98 L137,98 L136,97 L133,97 L132,96 L130,96 L129,95 L127,95 L126,94 L123,94 L122,93 L120,93 L119,92 L116,92 L115,91 L113,91 L112,90 L110,90 L109,89 L106,89 L105,88 L103,88 L102,87 L100,87 L99,86 L96,86 L95,85 L93,85 L92,84 L90,84 L89,83 L86,83 L85,82 L83,82 L82,81 L79,81 L78,80 L76,80 L75,79 L73,79 L72,78 L69,78 L68,77 L66,77 L65,76 L63,76 L62,75 L59,75 L58,74 L56,74 L55,73 L53,73 L52,72 L49,72 L48,71 L46,71 L45,70 L42,70 L41,69 L39,69 L38,68 L36,68 L35,67 L32,67 L31,66 L29,66 L28,65 L26,65 L25,64 L22,64 L21,63 L19,63 L18,62 L16,62 L15,61 L12,61 L11,60 L10,60 L11,60 L13,62 L13,66 L14,66 L15,67 L18,67 L19,68 L21,68 L22,69 L25,69 L26,70 L28,70 L29,71 L32,71 L33,72 L35,72 L36,73 L38,73 L39,74 L42,74 L43,75 L45,75 L46,76 L49,76 L50,77 L52,77 L53,78 L56,78 L57,79 L59,79 L60,80 L63,80 L64,81 L66,81 L67,82 L70,82 L71,83 L73,83 L74,84 L77,84 L78,85 L80,85 L81,86 L84,86 L85,87 L87,87 L88,88 L90,88 L91,89 L94,89 L95,90 L97,90 L98,91 L101,91 L102,92 L104,92 L105,93 L108,93 L109,94 L111,94 L112,95 L115,95 L116,96 L118,96 L119,97 L122,97 L123,98 L125,98 L126,99 L129,99 L130,100 L132,100 L133,101 L136,101 L137,102 L139,102 L140,103 L142,103 L143,104 L146,104 L147,105 L149,105 L150,106 L153,106 L154,107 L156,107 L157,108 L160,108 L161,109 L163,109 L164,110 L167,110 L168,111 L170,111 L171,112 L174,112 L175,113 L177,113 L178,114 L181,114 L182,115 L184,115 L185,116 L188,116 L189,117 L191,117 L192,118 L194,118 L195,119 L198,119 L199,120 L201,120 L202,121 L205,121 L206,122 L208,122 L209,123 L212,123 L213,124 L215,124 L216,125 L219,125 L220,126 L222,126 L223,127 L226,127 L227,128 L229,128 L230,129 L233,129 L234,130 L236,130 L237,131 L240,131 L241,132 L243,132 L244,133 L246,133 L247,134 L250,134 L251,135 L253,135 L254,136 L257,136 L258,137 L260,137 L261,138 L261,142 L260,143 L259,143 L258,144 L249,144 L248,145 L243,145 L243,148 L242,149 L242,152 L241,153 L242,153 L243,154 L243,161 L242,162 L244,162 L245,163 L245,167 L244,168 L243,168 L244,169 L246,169 L247,170 L251,170 L252,171 L254,171 L255,172 L255,175 L257,177 L257,178 L259,180 L259,186 L258,187 L258,194 L257,195 L257,196 L256,197 L255,197 L255,200 L254,201 L254,204 L253,205 L253,206 L250,209 L250,212 L249,213 L249,216 L248,217 L248,220 L251,220 L252,219 L257,219 L258,218 L264,218 L265,217 L270,217 L271,216 L277,216 L278,215 L284,215 L285,214 L290,214 L291,213 L297,213 L298,212 L302,212 L304,214 L304,215 L305,216 L308,216 L309,217 L309,221 L308,222 L307,222 L308,222 L310,224 L310,248 L309,249 L309,251 L308,252 L308,253 L307,254 L307,256 L306,257 L306,258 L305,259 L305,261 L304,262 L304,263 L303,264 L303,266 L304,267 L304,272 L300,276 L299,276 L296,279 L295,279 L292,282 L291,282 L288,285 L287,285 L284,288 L283,288 L281,290 L280,290 L277,293 L276,293 L273,296 L272,296 L269,299 L268,299 L265,302 L264,302 L262,304 L261,304 L258,307 L257,307 L254,310 L253,310 L250,313 L249,313 L246,316 L245,316 L242,319 L241,319 L240,320 L244,320 L245,321 L245,322 L246,323 L246,324 L247,324 L249,326 L249,329 L250,330 L252,330 L253,329 L255,329 L256,328 L258,328 L259,327 L260,327 L261,326 L262,326 L263,325 L264,325 L265,324 L266,324 L267,323 L268,323 L269,322 L270,322 L271,321 L272,321 L273,320 L279,320 L280,319 L291,319 L292,318 L303,318 L304,317 L315,317 L316,316 L322,316 L324,318 L324,319 L325,319 L326,318 L330,318 L332,320 L332,323 L333,323 L334,324 L339,324 L340,325 L340,331 L338,333 L338,337 L336,339 L336,340 L334,342 L334,343 L332,345 L332,346 L329,349 L329,350 L327,352 L327,353 L325,355 L325,356 L323,358 L323,359 L321,361 L321,362 L319,364 L319,365 L316,368 L316,369 L314,371 L314,372 L312,374 L312,375 L309,378 L309,379 L307,381 L307,382 L310,382 L311,383 L311,384 L316,384 L317,385 L322,385 L323,386 L326,386 L327,387 L327,390 L328,389 L328,388 L329,387 L329,386 L331,384 L337,384 L338,385 L338,392 L337,393 L337,396 L343,396 L344,395 L345,395 L347,393 L347,392 L348,391 L348,390 L349,389 L349,388 L350,387 L350,386 L351,385 L351,384 L352,383 L352,382 L353,381 L353,380 L354,379 L354,378 L356,376 L356,375 L358,373 L361,373 L362,372 L364,372 L364,371 L365,370 L365,369 L366,368 L366,366 L367,365 L371,365 L372,366 L373,366 L374,367 L375,367 L376,368 L377,368 L379,370 L379,384 L378,385 L378,394 L377,395 L377,404 L376,405 L376,409 L378,409 L379,410 L381,408 L385,408 L386,409 L386,410 L389,410 L390,411 L391,411 L392,412 L398,412 L399,413 L399,412 L400,411 L402,411 L402,409 L403,408 L403,403 L404,402 L404,397 L405,396 L405,391 L406,390 L406,387 L407,386 L407,385 L408,384 L416,384 L417,385 L418,385 L419,386 L420,386 L421,387 L422,387 L424,389 L424,390 L425,391 L425,392 L426,393 L426,394 L427,395 L427,396 L428,397 L428,398 L430,400 L430,401 L431,402 L431,403 L432,404 L432,405 L433,406 L433,407 L435,409 L435,410 L436,411 L436,412 L437,413 L437,414 L438,415 L438,416 L439,417 L439,418 L441,420 L441,421 L442,422 L442,423 L443,424 L443,425 L444,426 L444,427 L446,429 L446,430 L447,431 L447,432 L448,433 L448,434 L449,435 L449,436 L450,437 L450,438 L452,440 L452,441 L453,442 L453,443 L454,444 L454,445 L455,446 L455,447 L457,449 L457,450 L458,451 L458,452 L459,453 L459,454 L460,455 L460,456 L461,457 L461,458 L463,460 L463,461 L464,462 L464,463 L465,464 L465,465 L466,466 L466,467 L468,469 L468,470 L469,471 L469,472 L470,473 L470,474 L471,475 L471,476 L472,477 L472,478 L473,479 L473,478 L474,477 L479,477 L479,476 L480,475 L480,470 L481,469 L482,469 L482,465 L484,463 L484,461 L485,460 L486,460 L486,459 L487,458 L495,458 L496,459 L498,459 L500,461 L501,461 L503,463 L504,463 L505,464 L509,464 L510,465 L510,466 L512,466 L513,467 L514,467 L515,468 L518,468 L521,471 L522,471 L523,472 L526,472 L527,473 L529,473 L530,474 L531,474 L532,475 L537,475 L538,476 L538,477 L541,477 L542,478 L542,479 L543,479 L544,480 L546,480 L547,481 L549,481 L550,482 L550,483 L553,483 L554,484 L557,484 L558,485 L558,486 L563,486 L564,487 L565,487 L567,489 L568,489 L569,490 L569,491 L570,490 L574,490 L578,494 L578,495 L588,495 L591,498 L591,499 L592,500 L595,500 L597,502 L602,502 L603,501 L605,501 L605,500 L607,498 L610,498 L611,497 L611,493 L612,492 L613,492 L613,490 L614,489 L616,489 L616,484 L618,482 L619,482 L619,478 L620,477 L621,477 L621,476 L623,474 L624,474 L624,466 L626,464 L626,463 L627,462 L628,462 L628,459 L629,458 L629,457 L630,456 L630,455 L631,454 L631,452 L632,451 L633,451 L633,450 L634,449 L634,445 L637,442 L637,439 L638,438 L639,438 L639,436 L640,435 L641,435 L641,432 L642,431 L643,431 L643,426 L644,425 L646,425 L646,420 L647,419 L647,416 L648,415 L648,414 L649,413 L650,413 L650,412 L651,411 L650,410 L650,405 L651,404 L651,402 L653,400 L653,398 L654,397 L654,396 L655,395 L655,394 L656,393 L656,392 L657,391 L658,391 L658,388 L659,387 L661,387 L661,382 L663,380 L663,378 L664,377 L664,373 L665,372 L667,372 L667,371 L668,370 L669,370 L669,369 L670,368 L670,367 L671,366 L671,365 L673,363 L673,361 L674,360 L674,359 L675,358 L675,355 L676,354 L676,352 L677,351 L678,351 L678,349 L679,348 L680,348 L680,347 L681,346 L681,342 L683,340 L683,335 L684,334 L685,334 L685,333 L686,332 L688,332 L688,328 L689,327 L689,323 L690,322 L690,320 L692,318 L693,318 L693,317 L694,316 L694,311 L697,308 L697,304 L698,303 L699,303 L699,302 L700,301 L701,301 L701,298 L703,296 L703,290 L704,289 L705,289 L706,288 L706,286 L708,284 L708,282 L709,281 L709,277 L710,276 L710,275 L712,273 L712,272 L713,271 L713,267 L715,265 L716,265 L716,263 L717,262 L717,260 L718,259 L718,257 L719,256 L720,256 L720,253 L721,252 L721,250 L722,249 L722,247 L723,246 L723,245 L724,244 L725,244 L724,243 L724,240 L722,240 L721,239 L721,237 L720,237 L719,236 L717,236 L715,234 L712,234 L711,233 L709,233 L708,232 L707,232 L705,230 L704,230 L703,229 L703,228 L699,228 L698,227 L696,227 L695,226 L693,226 L692,225 L692,223 L689,223 L688,222 L684,222 L683,221 L681,221 L680,220 L678,220 L677,219 L674,219 L673,218 L671,218 L670,217 L665,217 L663,215 L661,215 L660,214 L658,214 L657,213 L657,212 L656,211 L656,207 L657,206 L668,206 L669,207 L682,207 L683,208 L689,208 L683,208 L682,207 L673,207 L672,206 L672,204 L671,204 L670,203 L663,203 L662,202 L650,202 L649,201 L636,201 L635,200 L625,200 L624,199 L621,199 L619,197 L615,197 L614,196 L614,195 L608,195 L607,194 L607,193 L605,193 L604,192 L604,191 L600,191 L598,189 L596,189 L594,187 L594,183 L593,183 L592,182 L589,182 L588,181 L588,180 L586,180 L585,179 L583,179 L582,178 L578,178 L577,177 L576,177 L575,176 L574,176 L573,175 L572,175 L571,174 L569,174 L568,173 L567,173 L566,172 L564,172 L563,171 L562,171 L561,170 L560,170 L559,169 L557,169 L556,168 L553,168 L552,167 L550,167 L549,166 L547,166 L546,167 L537,167 L536,166 L535,166 L533,164 L532,164 L531,163 L530,163 L529,162 L527,162 L526,161 L524,161 L523,160 L522,160 L521,159 L519,159 L518,158 L516,158 L515,157 L514,157 L513,156 L511,156 L510,155 L509,155 L508,154 L507,154 L506,153 L504,153 L503,152 L501,152 L499,150 L499,146 L500,145 L500,144 L502,142 L502,141 L504,139 L504,138 L506,136 L506,135 L507,134 L507,132 L506,131 L502,131 L501,130 L500,130 L499,129 L497,129 L496,128 L493,128 L492,127 L490,127 L489,126 L487,126 L486,125 L484,125 L483,124 L481,124 L480,123 L477,123 L476,122 L474,122 L472,120 L472,119 L471,119 L470,118 L469,118 L467,116 L466,116 L466,117 L465,118 L465,120 L464,121 L464,123 L463,124 L463,125 L462,126 L462,128 L461,129 L461,131 L460,132 L460,133 L459,134 L454,134 L453,133 L452,133 L451,132 L449,132 L448,131 L446,131 L445,130 L444,130 L443,129 L442,129 L441,128 L440,128 L437,125 L437,122 L436,121 L436,115 L435,114 L435,108 L434,107 L434,103 L432,103 L432,106 L431,107 L429,107 L429,109 L427,111 L427,113 L428,114 L428,119 L427,120 L423,120 L422,119 L422,118 L421,117 L421,116 L416,116 L414,114 L414,113 L413,113 L411,111 L410,111 L409,110 L407,110 L406,109 L405,109 L404,108 L402,108 L400,106 L397,106 L396,105 L395,105 L394,104 L391,104 L390,103 L389,103 L387,101 L385,101 L384,100 L381,100 L380,99 L378,99 L376,97 L373,97 L372,96 L368,96 L363,91 L363,90 L358,85 L358,84 L353,79 L353,78 L348,73 L348,72 L343,67 L343,66 L339,62 L338,63 L337,63 L337,65 L339,67 L339,68 L344,73 L344,74 L349,79 L349,80 L354,85 L354,90 L353,91 L348,91 L347,90 L345,90 L343,88 L342,88 L341,87 L340,87 L338,85 L337,85 L334,82 L333,82 L314,63 L313,63 L304,54 L303,55 L299,55 L298,56 L294,56 L290,52 L289,52 L282,45 L281,45 L274,38 L273,38 L270,35 L269,35 L269,36 L268,37 L268,38 L267,39 L264,39 L266,41 L266,43 L269,43 L270,44 L270,48 L269,49 L265,49 L264,48 L264,46 L261,46 L259,44 L258,45 L258,47 L257,48 L255,48 L254,49 L246,49 L244,47 L243,47 L241,45 L240,45 L239,44 L238,45 L234,45 L233,44 L232,44 L230,42 L229,42 L227,40 L226,40 L224,38 L223,38 L220,35 L219,35 L217,33 L216,33 L214,31 L213,31 L211,29 L210,29 L208,27 L207,27 L205,25 L204,25 L203,24 L203,26 L202,27 L196,27 L194,25 L193,25 L191,23 L190,23 L189,22 L188,22 L187,21 L187,23 L186,24 L183,24 L183,27 L189,33 L189,37 L188,38 L185,38 L185,39 L184,40 L180,40 L178,38 L177,38 L176,37 L175,37 L174,36 L173,36 L172,35 L171,35 L170,34 L164,34 L162,32 L161,32 L160,31 L159,31 L158,30 L157,30 L156,29 L155,29 L153,27 L152,27 L151,26 L150,26 L149,25 L148,25 L146,23 L145,23 L144,22 L143,22 L142,21 L141,21 L140,20 L139,20 L137,18 L136,18 L135,17 L134,17 L133,16 L132,16 L130,14 L129,14 L128,13 L127,13 L126,12 L125,12 L124,11 L123,11 L122,10" stroke-width="2" stroke="lime" fill="black" fill-opacity="0" />
</svg>