<?xml version="1.0" encoding="UTF-8"?>
<svg xmlns="http://www.w3.org/2000/svg" xmlns:xlink="http://www.w3.org/1999/xlink"
     width="710.9209236957445" height="619.4100931343435" viewBox="0 0 710.9209236957445 619.4100931343435">
<defs>
</defs>
<path d="M121,10 L121,10 L123,12 L123,23 L124,24 L124,28 L126,30 L127,30 L128,31 L128,35 L126,37 L125,37 L125,38 L123,40 L123,42 L122,43 L122,46 L121,47 L123,49 L124,49 L127,52 L128,52 L131,55 L132,55 L135,58 L135,65 L134,66 L134,69 L133,70 L133,71 L132,72 L129,72 L129,75 L128,76 L128,78 L127,79 L126,79 L126,85 L125,86 L122,86 L121,87 L117,87 L119,89 L119,95 L118,96 L113,96 L112,97 L105,97 L104,96 L103,96 L102,95 L101,95 L100,94 L99,94 L98,93 L97,93 L96,92 L95,92 L93,90 L92,90 L91,89 L90,89 L89,88 L88,88 L87,87 L86,87 L85,86 L84,86 L83,85 L82,85 L81,84 L80,84 L79,83 L78,83 L77,82 L76,82 L75,81 L74,81 L72,79 L71,79 L70,78 L69,78 L68,77 L67,77 L66,76 L65,76 L64,75 L63,75 L62,74 L61,74 L60,73 L59,73 L58,72 L57,72 L56,71 L55,71 L54,70 L53,71 L49,71 L49,73 L48,74 L48,75 L47,76 L45,76 L45,78 L44,79 L44,80 L43,81 L42,81 L42,83 L40,85 L39,85 L39,87 L38,88 L37,88 L37,89 L36,90 L35,90 L36,91 L36,95 L35,96 L33,96 L33,98 L32,99 L30,99 L27,102 L23,102 L22,101 L20,101 L19,100 L17,100 L17,101 L16,102 L12,102 L11,101 L10,101 L10,105 L11,105 L12,106 L12,112 L13,112 L14,113 L15,113 L16,114 L18,114 L19,115 L20,115 L21,116 L23,116 L24,117 L26,117 L27,118 L28,118 L29,119 L31,119 L32,120 L33,120 L34,121 L36,121 L37,122 L38,122 L39,123 L41,123 L42,124 L44,124 L45,125 L46,125 L47,126 L49,126 L50,127 L51,127 L52,128 L54,128 L55,129 L56,129 L57,130 L59,130 L60,131 L61,131 L62,132 L64,132 L65,133 L67,133 L68,134 L69,134 L70,135 L72,135 L73,136 L74,136 L75,137 L77,137 L78,138 L79,138 L80,139 L82,139 L83,140 L85,140 L86,141 L87,141 L88,142 L90,142 L91,143 L92,143 L93,144 L95,144 L96,145 L97,145 L98,146 L100,146 L101,147 L103,147 L104,148 L105,148 L106,149 L108,149 L109,150 L110,150 L111,151 L113,151 L114,152 L115,152 L116,153 L118,153 L119,154 L120,154 L121,155 L123,155 L124,156 L126,156 L127,157 L128,157 L129,158 L131,158 L132,159 L133,159 L134,160 L136,160 L137,161 L138,161 L139,162 L141,162 L142,163 L144,163 L145,164 L146,164 L147,165 L149,165 L150,166 L151,166 L152,167 L154,167 L155,168 L156,168 L157,169 L159,169 L160,170 L161,170 L162,171 L164,171 L165,172 L167,172 L168,173 L169,173 L170,174 L172,174 L173,175 L174,175 L175,176 L177,176 L178,177 L179,177 L180,178 L182,178 L183,179 L185,179 L186,180 L187,180 L188,181 L190,181 L191,182 L192,182 L193,183 L195,183 L196,184 L197,184 L198,185 L200,185 L201,186 L203,186 L204,187 L205,187 L206,188 L208,188 L209,189 L210,189 L211,190 L213,190 L214,191 L215,191 L216,192 L218,192 L219,193 L220,193 L221,194 L223,194 L224,195 L226,195 L227,196 L228,196 L229,197 L231,197 L232,198 L233,198 L234,199 L236,199 L237,200 L238,200 L239,201 L241,201 L242,202 L244,202 L245,203 L246,203 L247,204 L248,204 L249,205 L249,211 L248,212 L243,212 L242,213 L238,213 L238,221 L237,222 L237,223 L236,224 L236,228 L235,229 L234,229 L230,233 L230,234 L229,235 L228,235 L229,235 L230,236 L230,241 L229,242 L229,243 L228,244 L228,245 L227,246 L227,247 L224,250 L224,252 L223,253 L223,258 L220,261 L211,261 L212,261 L213,262 L213,264 L214,264 L215,265 L215,271 L214,272 L213,272 L213,273 L212,274 L212,281 L219,281 L220,282 L228,282 L230,284 L231,284 L232,285 L235,285 L236,286 L236,291 L235,292 L234,292 L233,293 L232,293 L231,294 L230,294 L229,295 L228,295 L227,296 L226,296 L225,297 L224,297 L223,298 L222,298 L224,298 L225,299 L225,303 L224,304 L222,304 L221,305 L220,305 L219,306 L217,306 L216,307 L214,307 L213,308 L212,308 L211,309 L209,309 L208,310 L206,310 L205,311 L204,311 L203,312 L201,312 L200,313 L198,313 L197,314 L196,314 L195,315 L193,315 L192,316 L190,316 L189,317 L188,317 L187,318 L185,318 L184,319 L182,319 L181,320 L180,320 L179,321 L177,321 L176,322 L175,322 L174,323 L172,323 L171,324 L169,324 L168,325 L167,325 L166,326 L164,326 L163,327 L161,327 L160,328 L159,328 L158,329 L156,329 L155,330 L153,330 L152,331 L151,331 L150,332 L148,332 L147,333 L145,333 L144,334 L143,334 L142,335 L140,335 L139,336 L137,336 L136,337 L135,337 L134,338 L132,338 L131,339 L129,339 L128,340 L127,340 L126,341 L124,341 L123,342 L121,342 L120,343 L119,343 L118,344 L116,344 L115,345 L114,345 L113,346 L112,346 L112,347 L111,348 L111,349 L114,349 L115,348 L120,348 L121,347 L127,347 L128,346 L133,346 L134,345 L139,345 L140,344 L146,344 L147,343 L152,343 L153,342 L159,342 L160,341 L165,341 L166,340 L171,340 L172,339 L178,339 L179,338 L184,338 L185,337 L191,337 L192,336 L197,336 L198,335 L203,335 L204,334 L210,334 L211,333 L216,333 L217,332 L223,332 L224,331 L229,331 L230,330 L235,330 L236,329 L242,329 L243,328 L248,328 L249,327 L255,327 L256,326 L261,326 L262,325 L267,325 L268,324 L274,324 L275,323 L281,323 L282,324 L282,327 L283,328 L290,328 L291,329 L291,333 L290,334 L290,335 L289,336 L288,336 L287,337 L286,337 L285,338 L284,338 L284,342 L283,343 L282,343 L281,344 L280,344 L279,345 L278,345 L277,346 L276,346 L275,347 L274,347 L273,348 L272,348 L271,349 L270,349 L269,350 L268,350 L267,351 L266,351 L265,352 L264,352 L263,353 L262,353 L261,354 L260,354 L259,355 L258,355 L258,356 L259,357 L259,359 L260,359 L261,360 L262,360 L263,361 L263,365 L260,368 L259,368 L257,370 L256,370 L255,371 L254,371 L253,372 L253,373 L254,373 L255,374 L256,374 L257,375 L257,376 L258,376 L259,377 L259,378 L260,378 L261,379 L262,379 L263,380 L263,381 L264,382 L265,382 L266,383 L267,382 L268,382 L270,380 L279,380 L282,383 L282,389 L280,391 L280,397 L277,400 L277,401 L275,403 L276,404 L276,405 L277,405 L279,407 L279,408 L280,409 L281,409 L283,411 L284,411 L286,413 L287,413 L290,416 L291,416 L293,418 L294,418 L296,420 L297,420 L299,422 L300,422 L302,424 L303,424 L305,426 L306,426 L308,428 L309,428 L312,431 L313,431 L315,433 L316,433 L319,436 L319,442 L320,443 L320,444 L321,445 L321,446 L322,447 L324,447 L325,448 L326,448 L327,449 L327,451 L329,451 L331,453 L331,454 L332,455 L332,458 L333,459 L333,461 L334,462 L334,464 L335,465 L335,468 L336,469 L336,471 L337,472 L337,474 L338,475 L338,478 L339,479 L339,480 L340,481 L340,483 L349,483 L350,484 L350,485 L354,489 L357,489 L358,490 L358,492 L359,492 L360,493 L362,493 L363,494 L364,494 L367,497 L367,498 L369,498 L370,499 L371,499 L372,500 L379,500 L381,502 L381,505 L382,505 L383,506 L384,506 L385,507 L385,517 L384,518 L384,523 L383,524 L383,529 L382,530 L382,535 L381,536 L381,539 L384,539 L385,540 L385,541 L386,542 L387,541 L393,541 L394,542 L395,542 L397,544 L398,544 L400,546 L401,546 L404,549 L405,549 L407,551 L408,551 L410,553 L411,553 L413,555 L414,555 L416,557 L417,557 L420,560 L421,560 L423,562 L424,562 L426,564 L427,564 L428,565 L429,565 L430,566 L430,565 L431,564 L432,564 L432,563 L434,561 L438,561 L438,559 L439,558 L439,556 L440,555 L440,553 L441,552 L442,552 L442,551 L443,550 L443,549 L444,548 L450,548 L451,549 L453,549 L454,550 L456,550 L457,551 L457,552 L459,552 L460,553 L462,553 L464,555 L465,555 L466,556 L466,557 L468,557 L469,558 L471,558 L473,560 L473,561 L475,561 L476,562 L476,563 L478,563 L479,564 L479,565 L482,565 L483,566 L484,566 L487,569 L489,569 L490,570 L492,570 L494,572 L494,573 L496,573 L497,574 L497,575 L498,576 L500,576 L501,577 L501,578 L503,578 L505,580 L505,581 L508,581 L509,582 L512,582 L513,583 L513,584 L516,584 L517,585 L517,586 L520,586 L521,587 L521,588 L523,588 L525,590 L528,590 L529,591 L529,593 L530,594 L533,594 L534,595 L536,595 L537,596 L537,597 L538,598 L538,599 L541,599 L543,601 L543,602 L546,602 L548,604 L548,605 L551,605 L552,606 L552,607 L553,608 L553,609 L553,608 L554,607 L558,607 L558,603 L559,602 L562,602 L562,601 L563,600 L563,599 L564,598 L564,597 L565,596 L565,595 L566,594 L567,594 L567,590 L568,589 L569,589 L569,588 L570,587 L571,587 L572,586 L572,585 L573,584 L574,584 L574,583 L576,581 L576,576 L577,575 L577,574 L579,572 L580,572 L580,569 L581,568 L581,566 L582,565 L584,565 L585,564 L585,562 L587,560 L587,559 L589,557 L589,556 L590,555 L590,554 L591,553 L593,553 L593,550 L595,548 L595,546 L596,545 L596,543 L597,542 L598,542 L600,540 L600,537 L601,536 L601,535 L603,533 L604,533 L604,530 L605,529 L605,526 L606,525 L608,525 L608,524 L609,523 L610,523 L610,520 L611,519 L611,513 L612,512 L613,512 L614,511 L614,510 L615,509 L615,507 L616,506 L617,506 L617,504 L619,502 L619,498 L620,497 L621,497 L621,496 L622,495 L623,495 L624,494 L624,493 L625,492 L625,490 L627,488 L629,488 L629,486 L630,485 L630,479 L631,478 L632,478 L632,477 L634,475 L635,475 L635,471 L639,467 L639,464 L640,463 L641,463 L641,462 L642,461 L643,461 L643,459 L646,456 L646,454 L649,451 L651,451 L651,449 L653,447 L653,446 L654,445 L655,445 L656,444 L656,441 L657,440 L657,439 L658,438 L658,437 L660,435 L661,435 L662,434 L662,431 L663,430 L664,430 L664,429 L665,428 L665,426 L666,425 L667,425 L667,424 L669,422 L669,420 L670,419 L670,417 L671,416 L672,416 L672,414 L674,412 L674,411 L675,410 L675,408 L676,407 L677,407 L677,406 L678,405 L679,405 L679,403 L681,401 L681,400 L682,399 L682,398 L683,397 L685,397 L685,394 L686,393 L686,391 L687,390 L689,390 L689,388 L690,387 L691,387 L691,386 L692,385 L692,384 L693,383 L694,383 L694,379 L696,377 L696,376 L697,375 L697,374 L698,373 L698,370 L699,369 L700,369 L700,360 L699,360 L697,358 L697,356 L696,356 L695,355 L693,355 L692,354 L691,354 L690,353 L688,353 L687,352 L685,352 L684,351 L684,349 L683,349 L682,348 L680,348 L679,347 L677,347 L675,345 L675,344 L674,344 L673,343 L673,340 L672,339 L672,338 L671,338 L670,337 L667,337 L666,336 L664,336 L663,335 L660,335 L659,334 L657,334 L656,333 L653,333 L652,332 L650,332 L649,331 L647,331 L646,330 L643,330 L642,329 L640,329 L639,328 L639,324 L638,324 L637,323 L634,323 L633,322 L631,322 L630,321 L630,320 L629,320 L628,319 L625,319 L624,318 L624,317 L622,317 L621,316 L619,316 L618,315 L618,314 L616,314 L615,313 L612,313 L611,312 L609,312 L608,311 L608,309 L607,308 L606,308 L605,307 L604,307 L603,306 L603,305 L601,305 L600,304 L599,304 L598,303 L598,298 L599,297 L604,297 L605,298 L612,298 L613,299 L620,299 L621,300 L625,300 L624,299 L624,298 L623,297 L619,297 L618,296 L611,296 L610,295 L602,295 L601,294 L593,294 L592,293 L585,293 L584,292 L583,292 L582,291 L582,289 L581,289 L580,288 L580,287 L578,287 L577,286 L575,286 L574,285 L574,284 L572,284 L571,283 L569,283 L568,282 L568,281 L566,281 L565,280 L565,279 L564,279 L563,278 L562,278 L561,277 L559,277 L558,276 L558,275 L557,275 L556,274 L555,274 L554,273 L553,273 L552,272 L550,272 L548,270 L547,270 L546,269 L545,269 L544,268 L543,268 L542,267 L540,267 L539,266 L530,266 L529,265 L528,265 L526,263 L525,263 L523,261 L522,261 L521,260 L521,259 L519,259 L517,257 L515,257 L513,255 L511,255 L509,253 L508,253 L506,251 L505,251 L504,250 L503,250 L502,249 L501,249 L499,247 L497,247 L495,245 L494,245 L493,244 L493,240 L504,229 L504,228 L503,227 L502,227 L501,226 L499,226 L496,223 L495,223 L494,222 L493,222 L492,221 L491,221 L490,220 L489,220 L487,218 L486,218 L485,217 L484,217 L483,216 L482,216 L480,214 L479,214 L478,213 L477,213 L476,212 L475,212 L474,211 L473,211 L472,210 L471,210 L470,209 L469,209 L468,208 L468,207 L467,206 L466,206 L465,205 L465,206 L464,207 L464,208 L463,209 L463,210 L462,211 L462,212 L461,213 L461,214 L460,215 L460,216 L459,217 L459,218 L458,219 L458,220 L457,221 L451,221 L450,220 L449,220 L447,218 L446,218 L445,217 L444,217 L443,216 L442,216 L439,213 L438,213 L436,211 L436,201 L437,200 L437,188 L434,188 L433,189 L433,191 L432,192 L430,192 L430,193 L428,195 L428,203 L427,204 L423,204 L422,203 L422,202 L421,201 L421,199 L416,199 L415,198 L415,197 L414,196 L414,194 L413,193 L412,193 L409,190 L407,190 L405,188 L403,188 L400,185 L398,185 L397,184 L396,184 L393,181 L391,181 L390,180 L388,180 L386,178 L386,177 L384,177 L383,176 L382,176 L380,174 L379,174 L378,173 L375,173 L374,172 L373,173 L369,173 L368,172 L366,172 L365,171 L365,170 L364,170 L362,168 L360,168 L356,164 L354,164 L353,163 L352,163 L350,161 L349,161 L345,157 L343,157 L341,155 L341,154 L337,150 L337,149 L333,145 L333,144 L330,141 L330,140 L326,136 L326,135 L322,131 L322,130 L318,126 L318,125 L316,123 L314,123 L313,124 L309,124 L308,123 L308,122 L303,117 L303,116 L298,111 L298,110 L293,105 L293,104 L291,102 L286,102 L282,98 L282,97 L277,92 L277,91 L271,85 L271,84 L266,79 L266,78 L261,73 L261,72 L258,69 L261,72 L261,73 L266,78 L266,79 L271,84 L271,85 L276,90 L276,91 L281,96 L281,97 L282,98 L282,103 L281,104 L280,104 L284,108 L284,109 L286,111 L286,115 L285,116 L281,116 L276,111 L281,116 L281,121 L283,123 L283,127 L282,128 L278,128 L269,119 L268,119 L253,104 L252,104 L238,90 L237,90 L230,83 L225,83 L223,81 L222,81 L220,79 L220,81 L219,82 L215,82 L214,81 L213,81 L206,74 L205,74 L202,71 L200,71 L198,69 L195,69 L190,64 L189,64 L182,57 L181,57 L175,51 L174,51 L168,45 L167,45 L160,38 L159,38 L153,32 L152,32 L146,26 L145,26 L138,19 L137,19 L131,13 L130,13 L127,10 L126,11 L122,11" stroke-width="2" stroke="lime" fill="black" fill-opacity="0" />
</svg>